<svg id="Layer_1" data-name="Layer 1" xmlns="http://www.w3.org/2000/svg" viewBox="0 0 721.2 703.5"><defs><style>.cls-1{fill:#6d2e91;}.cls-1,.cls-2,.cls-3{fill-rule:evenodd;}.cls-2{fill:#fdb71a;}.cls-3{fill:#fff;}</style></defs><title>fcmblogo</title><path class="cls-1" d="M54.59,9.69h612A37,37,0,0,1,703.5,46.58V656.93a37,37,0,0,1-36.89,36.88h-612A37,37,0,0,1,17.7,656.93V46.58A37,37,0,0,1,54.59,9.69"/><path class="cls-2" d="M122.26,479.36a22.53,22.53,0,0,1,22.42-22.51H598.9V516H122.26Z"/><path class="cls-2" d="M122.26,566.68a22.52,22.52,0,0,0,22.42,22.53H598.9l0-59.13H122.26Z"/><path class="cls-3" d="M449.31,371.54v-67.6l-4.5,7c-6.12,9.35-22.1,33.86-22.81,34.88a4,4,0,0,1-3.09,1.52,3.62,3.62,0,0,1-2.94-1.72c-1-1.46-22.52-34.39-22.52-34.39l-4.52-6.92v67.26H364.66v-99a3.79,3.79,0,0,1,1.08-2.54,3.52,3.52,0,0,1,2.56-1.07h21a5.9,5.9,0,0,1,4.71,2.8l25.3,41.1,2.09-3.42s21.12-34.19,23.38-37.89a5.76,5.76,0,0,1,4.79-2.59h20.89a3.67,3.67,0,0,1,3.57,3.56l0,99.08Z"/><path class="cls-3" d="M122.73,371.38v-96.6a5.73,5.73,0,0,1,5.74-5.81h75.18V290.1H147.53v23.19h50.75V333H147.53v38.36Z"/><path class="cls-3" d="M288.25,373.52c-30.14,0-52.87-22.8-52.87-53,0-30.7,23.26-53.66,54.11-53.66,18.09,0,31.88,6.37,42.11,19.48l-15.94,12.32a3.91,3.91,0,0,1-2.28.79,4,4,0,0,1-2.66-1.16C304.5,292,297.6,289,289.16,289c-16,0-28,13.27-28,30.85,0,18,12.06,31.42,28,31.42,8.91,0,15.83-3,22.44-9.75a3.56,3.56,0,0,1,2.6-1.21,4.28,4.28,0,0,1,2.32.72l15.8,11.23c-11.34,14.67-25,21.23-44.07,21.23"/><path class="cls-3" d="M531.47,311.75h21.17c14.44,0,16.55-7.41,16.55-11.82,0-3.83-1.53-12-15.94-12H531.47Zm0,40.64h25.46c10.47,0,16.71-4.59,16.71-12.29,0-4-1.64-12.44-17-12.44H531.47Zm-24.06,19V274.83a5.71,5.71,0,0,1,5.82-5.86H560c12.51,0,21.53,2.94,27.55,8.93a21.24,21.24,0,0,1,6.17,15.59c0,10.32-5.06,17.61-15.08,22L572.72,318l6.14,2c13.57,4.47,19.61,11.83,19.61,23.87,0,17.29-14.27,27.45-38.17,27.45Z"/></svg>