<svg width="24" height="24" viewBox="0 0 24 24" fill="none" xmlns="http://www.w3.org/2000/svg">
<path d="M21.995 22V21.9992H22V14.6642C22 11.0758 21.2275 8.31165 17.0325 8.31165C15.0158 8.31165 13.6625 9.41831 13.11 10.4675H13.0517V8.64665H9.07416V21.9992H13.2158V15.3875C13.2158 13.6467 13.5458 11.9633 15.7017 11.9633C17.8258 11.9633 17.8575 13.95 17.8575 15.4992V22H21.995Z" fill="#FF6A00"/>
<path d="M2.32999 8.64746H6.47665V22H2.32999V8.64746Z" fill="#FF6A00"/>
<path d="M4.40167 2C3.07583 2 2 3.07583 2 4.40167C2 5.7275 3.07583 6.82583 4.40167 6.82583C5.7275 6.82583 6.80333 5.7275 6.80333 4.40167C6.8025 3.07583 5.72667 2 4.40167 2V2Z" fill="#FF6A00"/>
</svg>
