<svg id="Layer_1" data-name="Layer 1" xmlns="http://www.w3.org/2000/svg" viewBox="0 0 800 253.02"><defs><style>.cls-1{fill:#1e1e1e;}.cls-2{fill:#ed6642;}.cls-3{fill:#f9b898;}.cls-4{fill:#ef6c49;}.cls-5{fill:#a61f22;}.cls-6{fill:#b5252e;}.cls-7{fill:#9e1d20;}.cls-8{fill:#bc803a;}.cls-9{fill:#b02129;}.cls-10{fill:#d13d4d;}.cls-11{fill:#bf2c37;}.cls-12{fill:#ab1f25;}.cls-13{fill:#bb2a33;}.cls-14{fill:#971c1e;}.cls-15{fill:#f15839;}.cls-16{fill:#f1815d;}.cls-17{fill:#c73542;}.cls-18{fill:#d43943;}.cls-19{fill:#f8a080;}.cls-20{fill:#c3313c;}.cls-21{fill:#d9414a;}.cls-22{fill:#b5752b;}.cls-23{fill:#f68e70;}.cls-24{fill:#ae2024;}.cls-25{fill:#f0724f;}.cls-26{fill:#a51e22;}.cls-27{fill:#f07b57;}.cls-28{fill:#f79a79;}.cls-29{fill:#b77930;}.cls-30{fill:#cc3847;}.cls-31{fill:#cd2834;}.cls-32{fill:#f47f60;}.cls-33{fill:#b3712a;}.cls-34{fill:#f37052;}.cls-35{fill:#f2694b;}.cls-36{fill:#252424;}.cls-37{fill:#f69375;}.cls-38{fill:#f37557;}.cls-39{fill:#f47a5b;}.cls-40{fill:#d1313c;}.cls-41{fill:#f07753;}.cls-42{fill:#c38c4c;}.cls-43{fill:#f9ac8d;}.cls-44{fill:#ee3224;}.cls-45{fill:#bf8542;}.cls-46{fill:#f58f6b;}.cls-47{fill:#f16244;}.cls-48{fill:#8c191c;}.cls-49{fill:#9e1d21;}.cls-50{fill:#c08847;}.cls-51{fill:#e75c63;}.cls-52{fill:#f58566;}.cls-53{fill:#222121;}.cls-54{fill:#d64252;}.cls-55{fill:#f8a687;}.cls-56{fill:#b97c34;}.cls-57{fill:#f49874;}.cls-58{fill:#c9975c;}.cls-59{fill:#f58a6a;}.cls-60{fill:#de4a52;}.cls-61{fill:#f15e3f;}.cls-62{fill:#cd2f37;}.cls-63{fill:#861819;}.cls-64{fill:#e04f58;}.cls-65{fill:#fab291;}.cls-66{fill:#d0a26d;}.cls-67{fill:#f48a64;}.cls-68{fill:#b62125;}.cls-69{fill:#f26d5b;}.cls-70{fill:#c59254;}.cls-71{fill:#e4545c;}.cls-72{fill:#232222;}.cls-73{fill:#f26350;}.cls-74{fill:#dd4859;}.cls-75{fill:#7d1416;}.cls-76{fill:#f18561;}.cls-77{fill:#cc9b62;}.cls-78{fill:#f47f6e;}.cls-79{fill:#f37766;}.cls-80{fill:#bf2527;}.cls-81{fill:#ef3d25;}.cls-82{fill:#f1553f;}.cls-83{fill:#f59e7a;}.cls-84{fill:#c7252d;}.cls-85{fill:#6d1211;}.cls-86{fill:#a32122;}.cls-87{fill:#f58879;}.cls-88{fill:#f69488;}.cls-89{fill:#f79f93;}.cls-90{fill:#f15d48;}.cls-91{fill:#ae2228;}.cls-92{fill:#d4a876;}.cls-93{fill:#ef472d;}.cls-94{fill:#741313;}.cls-95{fill:#eb656b;}.cls-96{fill:#c62828;}.cls-97{fill:#262626;}.cls-98{fill:#cf2a2a;}.cls-99{fill:#f4a47f;}.cls-100{fill:#f0777a;}.cls-101{fill:#ac2224;}.cls-102{fill:#f04e35;}.cls-103{fill:#b77a31;}.cls-104{fill:#ee6844;}.cls-105{fill:#f58f81;}.cls-106{fill:#f8b0a6;}.cls-107{fill:#f8a79c;}.cls-108{fill:#c53440;}.cls-109{fill:#be2d37;}.cls-110{fill:#f9bc9d;}.cls-111{fill:#9a1e20;}.cls-112{fill:#f9b9b0;}.cls-113{fill:#ef6d4a;}.cls-114{fill:#f68b6d;}.cls-115{fill:#f15f40;}.cls-116{fill:#b72830;}.cls-117{fill:#f79778;}.cls-118{fill:#fac1ba;}.cls-119{fill:#d44050;}.cls-120{fill:#eb2527;}.cls-121{fill:#bd823c;}.cls-122{fill:#b5752c;}.cls-123{fill:#f4795b;}.cls-124{fill:#f1815c;}.cls-125{fill:#f48262;}.cls-126{fill:#fbcbc4;}.cls-127{fill:#8c1f1d;}.cls-128{fill:#d62427;}.cls-129{fill:#fcd5cf;}.cls-130{fill:#f26648;}.cls-131{fill:#ef3b26;}.cls-132{fill:#b62526;}.cls-133{fill:#f37152;}.cls-134{fill:#ef6e73;}.cls-135{fill:#cd3b49;}.cls-136{fill:#f49470;}.cls-137{fill:#ca985e;}.cls-138{fill:#f38a66;}.cls-139{fill:#7a1f1a;}.cls-140{fill:#c02928;}.cls-141{fill:#fddeda;}.cls-142{fill:#c52527;}.cls-143{fill:#d8ae7e;}.cls-144{fill:#f3777b;}.cls-145{fill:#d1a36f;}.cls-146{fill:#feece9;}.cls-147{fill:#b72727;}.cls-148{fill:#f37361;}.cls-149{fill:#f15c46;}.cls-150{fill:#f5a37f;}.cls-151{fill:#a62e2b;}.cls-152{fill:#f26653;}.cls-153{fill:#fbc9c3;}.cls-154{fill:#f4806f;}.cls-155{fill:#343130;}.cls-156{fill:#f04c33;}.cls-157{fill:#f9b5ac;}.cls-158{fill:#f58c7d;}.cls-159{fill:#f6988b;}.cls-160{fill:#f7a498;}.cls-161{fill:#df525f;}.cls-162{fill:#c13b32;}.cls-163{fill:#e54335;}.cls-164{fill:#f7af8c;}.cls-165{fill:#d9af7f;}.cls-166{fill:#da3b33;}.cls-167{fill:#e05e4f;}.cls-168{fill:#914d43;}.cls-169{fill:#e09189;}.cls-170{fill:#f26552;}.cls-171{fill:#b95d51;}.cls-172{fill:#d23f35;}.cls-173{fill:#ca584b;}.cls-174{fill:#f58f91;}.cls-175{fill:#eea8a0;}.cls-176{fill:#e78777;}.cls-177{fill:#f37966;}.cls-178{fill:#b9655c;}.cls-179{fill:#bc8d85;}.cls-180{fill:#df978d;}.cls-181{fill:#985045;}.cls-182{fill:#1e1e1d;}.cls-183{fill:#20201f;}.cls-184{fill:#212020;}</style></defs><title>pilogo</title><path class="cls-1" d="M751.31,148.33V125.08c0-1,0-2,0-3,0-3.25.16-3.38,2.86-3.37s2.66.08,2.68,3.53c0,2.7,0,5.41,0,8.12,0,7.76,0,15.51,0,23.27,0,1.56.33,3.32-1.65,4.08a5.67,5.67,0,0,1-6-1.6,18.84,18.84,0,0,1-1.71-2.83q-6.63-12.35-13.23-24.69a3.53,3.53,0,0,0-1.53-1.93v3.7q0,12.19,0,24.37c0,2.94-.39,3.21-3.06,3.22-1.75,0-2.39-.7-2.38-2.42,0-11.32,0-22.65,0-34,0-2.3.58-2.57,2.91-2.84,3.22-.37,5.29.78,6.79,3.75,3.83,7.56,7.89,15,11.86,22.49.61,1.15,1.21,2.32,1.81,3.49Z"/><path class="cls-2" d="M122.42,240.14,121,240c-.73-.49-1.66-.09-2.4-.56-7.48-1-14.46-3.61-21.27-6.71A80.93,80.93,0,0,1,68.6,210.88,9.57,9.57,0,0,1,66.06,207l12.82,1.25c9.28,4.75,17.76,10.82,26.64,16.23,6.69,4.08,13.29,8.33,19.92,12.5,1.24.78,2.71,1.41,3.44,2.71.85,1.53-.11,1.59-1.29,1.15l-2.13-.16C124.52,240.13,123.34,240.8,122.42,240.14Z"/><path class="cls-3" d="M150.59,115.89c-3.88-.89-7.24-3-10.82-4.59a156.41,156.41,0,0,1-20.51-10.76,15.55,15.55,0,0,1-4-3.6c17.39.84,34.37,3.14,51-2.45a1.89,1.89,0,0,1,0,2.66C161,103.37,156.43,110.18,150.59,115.89Z"/><path class="cls-4" d="M127.59,240.88c.33-.18,1.32-.16.81-.63a27,27,0,0,0-4.17-3c-7.57-4.74-15.18-9.42-22.74-14.16-6.94-4.35-13.83-8.77-20.75-13.12-.74-.47-1.51-.84-1.86-1.7l11.65-.81c1.72-.59,3.12.22,4.45,1.09,10.12,6.7,20.62,12.8,30.73,19.54,2.84,1.89,5.91,3.47,8.84,5.25,1.51.92,3.37,1.93,2,4.3C134.12,240.26,131.66,242.83,127.59,240.88Z"/><path class="cls-5" d="M155.09,226.05a91.57,91.57,0,0,1,4.35-10.39,6.1,6.1,0,0,1,4.17-1.16c11.3,0,22.6-.11,33.9.07,1.71,0,4.6-.77,4.24,2.8a58.15,58.15,0,0,1-14.07,11c-9-1-18-.21-27.06-.5C158.63,227.85,156.36,228.36,155.09,226.05Z"/><path class="cls-6" d="M216.42,196.46a2.86,2.86,0,0,1,0,3.69c-1,1.23-1.58,2.74-2.85,3.74-16.75-.62-33.5-.51-50.25,0a52,52,0,0,1,2.2-8.87c.79-1.53,2.24-1.84,3.74-1.85,14.22-.13,28.43-.11,42.64,0C214.19,193.13,215.88,194,216.42,196.46Z"/><path class="cls-1" d="M531.26,125.25c-1.5.25-2.47-.93-3.7-1.41-2.45-1-4.84-1.73-7.5-.73a5.15,5.15,0,0,0-2.28,8.36,12.11,12.11,0,0,0,4.2,2.93c2.21,1.07,4.46,2.09,6.59,3.31a10,10,0,0,1,5.4,10.46,10.27,10.27,0,0,1-7.41,9.19,18.39,18.39,0,0,1-14-.81c-1.27-.58-2.43-1.27-2.49-2.89,0-1-.35-2.17.43-2.82s1.86.16,2.68.63a14.9,14.9,0,0,0,8.81,2.15c3.3-.27,5.58-2,6.3-4.75s-.35-5-3.3-6.75c-1.67-1-3.5-1.77-5.27-2.63a21.46,21.46,0,0,1-5.6-3.51,10,10,0,0,1,4-17.13,15.75,15.75,0,0,1,10.49.45C531.92,120.58,532.25,121.34,531.26,125.25Z"/><path class="cls-1" d="M444.23,158.37a20.43,20.43,0,0,1-8.77-2,3.35,3.35,0,0,1-2.07-2.83c-.05-1-.27-2.06.7-2.7s1.62.18,2.34.58a15.17,15.17,0,0,0,8.78,2.26c3.34-.24,5.8-1.95,6.45-4.56.73-2.94-.3-5.21-3.39-7.05-1.58-.94-3.28-1.68-4.95-2.46a25.53,25.53,0,0,1-5.08-3c-3.61-2.84-4.51-6.65-3.54-10.92.87-3.86,3.64-5.9,7.34-7a16,16,0,0,1,10.79.87c1.15.47,2.32,1.06,2.42,2.5.08,1,.47,2.31-.65,3-.89.59-1.6-.31-2.32-.66-2.68-1.31-5.33-2.48-8.44-1.48-4.25,1.37-5.37,5.79-2.2,9a13.49,13.49,0,0,0,3.7,2.39c2.2,1.08,4.46,2.06,6.58,3.3,4.39,2.58,6.3,6.59,5.48,11.12a11.12,11.12,0,0,1-9,9.11A37.39,37.39,0,0,1,444.23,158.37Z"/><path class="cls-7" d="M155.09,226.05c1.33.83,2.82.74,4.3.74q12.57,0,25.14,0c1.29,0,2.86-.4,3.15,1.62-8.19,5.83-17.41,9.3-27.09,11.63a66.16,66.16,0,0,1-14.42,1.86C149.63,236.54,152.19,231.21,155.09,226.05Z"/><path class="cls-8" d="M53,182.43a11.25,11.25,0,0,1-1.55-5c-.72-2,.76-2.3,2.08-2.61a18.5,18.5,0,0,1,4.4-.25q22.65,0,45.28,0a29,29,0,0,1,8.34,1.18,96.81,96.81,0,0,1,11.74,4.48c-1.54,2.18-3.88,1.83-6,1.83q-29.57,0-59.11,0A17,17,0,0,0,53,182.43Z"/><path class="cls-9" d="M163.27,203.85a4,4,0,0,1,3.51-1.51c14.63.06,29.26,0,43.9,0,1.19,0,2.58-.3,2.84,1.51a22.13,22.13,0,0,1-4.5,5.77,13.17,13.17,0,0,1-4.37.57c-12.55,0-25.11,0-37.67,0-1.81,0-3.74.31-5.24-1.16A15,15,0,0,1,163.27,203.85Z"/><path class="cls-10" d="M168.45,170.56l-.15-14.51c-.53-4.54-.2-5,4.17-5.12,5.53-.12,11.07,0,16.6,0a9.24,9.24,0,0,1,5.83,2,44.84,44.84,0,0,1,8.56,9.47c-2.29,1.57-4.94,1.13-7.45,1.18-6.73.13-13.47,0-20.2.05-5.2,0-5.2,0-5.75,5.17C169.8,169.59,169.68,170.56,168.45,170.56Z"/><path class="cls-11" d="M166.75,188.28a22.36,22.36,0,0,1,.91-6.61c1.31-1.2,2.94-1.18,4.54-1.18q18.48,0,37,0c2.12,0,4.3,0,5.06,2.65a15.93,15.93,0,0,1,1.45,6.65c-14.57-.59-29.15-.13-43.72-.3C170.15,189.47,168.22,189.78,166.75,188.28Z"/><path class="cls-12" d="M161.74,209q21.7,0,43.41,0c1.3,0,2.72-.46,3.87.61a37.45,37.45,0,0,1-7.27,7.71c-.15-.94-.57-1.62-1.63-1.65s-2,0-3,0l-37.72,0A29.18,29.18,0,0,1,161.74,209Z"/><path class="cls-13" d="M166.75,188.28q22.33,0,44.66,0c1.62,0,3.23-.14,4.26,1.48a23.05,23.05,0,0,1,.75,6.67,4.84,4.84,0,0,0-4.61-2.27c-14.14.09-28.29.05-42.43,0a7,7,0,0,0-3.91.75A25.46,25.46,0,0,1,166.75,188.28Z"/><path class="cls-14" d="M86.22,106.23a.31.31,0,0,1,.15.48c.25.55.19,1.21.57,1.72a16.13,16.13,0,0,1,1.53,7.4c-8.17,3.06-15.78,7.36-23.81,10.72a12.46,12.46,0,0,1-2.77,1l-9.63-5.06c-.38-.36-1.15-.53-.67-1.32l2.73-.17c2-.38,4.31-.08,5-2.95.19-.85,1.48-1.21,2.36-1.64,7-3.44,14.4-6.24,21.38-9.84A3.38,3.38,0,0,1,86.22,106.23Z"/><path class="cls-15" d="M232.84,150.14c-.15,11.59-3.25,22.49-7.8,33.89-2-6.8-5.08-12.31-7.81-18a1.85,1.85,0,0,1-.06-2.37c3.9-5.31,8.15-10.35,12.31-15.46.8-1,1.94-2.36,3.58-1A7.13,7.13,0,0,1,232.84,150.14Z"/><path class="cls-16" d="M109.93,202.37a36.59,36.59,0,0,1,7.15-3,2.21,2.21,0,0,0,1-.55.6.6,0,0,1,.55-.19c2.1-.83,3.59.6,5,1.59,7.42,5.08,15.25,9.53,22.78,14.43,1.16.76,2.85,1.34,2,3.35v0c-.56.46-.46,1.17-.69,1.75a11.39,11.39,0,0,1-2.23,5.06c-7.44-4.88-15.22-9.24-22.66-14.12C118.61,207.79,114.32,205,109.93,202.37Z"/><path class="cls-17" d="M168.45,170.56a1.55,1.55,0,0,0,.68-1.47,4.88,4.88,0,0,1,3.43-1.13c11-.12,21.92,0,32.88-.05a6.75,6.75,0,0,1,2.16.43h0c.4.42.27,1.16.88,1.45a16.27,16.27,0,0,1,3.06,5.89c-1.34,1.45-3.15,1.26-4.84,1.27q-16.8.08-33.61,0c-1.7,0-3.49.18-4.86-1.23A20.66,20.66,0,0,1,168.45,170.56Z"/><path class="cls-18" d="M195.33,70.6a.33.33,0,0,1,.43.23l.83.59a12.1,12.1,0,0,1,4.22,3c-1.4,1.33-3.19,1.15-4.89,1.16q-32.53,0-65.06,0a8.9,8.9,0,0,1-5-1.11,8.58,8.58,0,0,1-2.56-3.17c1-2.44,3.24-1.78,5-1.79,11.92-.1,23.85,0,35.77,0,8,0,16,0,24,0A20.66,20.66,0,0,1,195.33,70.6Z"/><path class="cls-19" d="M189.1,90.67c4-.62,8-1.09,12,0-6,3.19-8.66,9.43-12.86,14.24-4.41,5.06-8.31,10.57-12.67,15.69a13.22,13.22,0,0,1-3.43,3.28,32,32,0,0,1-6-2.66c-.52-1.1.16-1.93.73-2.68C174,109,181.2,99.57,189.1,90.67Z"/><path class="cls-20" d="M168.23,175.71l43.31,0a20,20,0,0,1,2.68,7.47c-1-1.55-2.61-1.5-4.24-1.49q-21.16,0-42.32,0C167.64,179.66,167.48,177.64,168.23,175.71Z"/><path class="cls-21" d="M195.33,70.6c-9.08,0-18.17.1-27.25.11-13.63,0-27.25,0-40.88,0-1.3,0-2.72-.46-3.87.61a8.39,8.39,0,0,1-2.4-3.39c.73-2.73,3-2,4.8-2q25.68-.11,51.37,0c4,0,8.14-.52,12.05,1.06A18.75,18.75,0,0,1,195.33,70.6Z"/><path class="cls-22" d="M58.9,192.67c-2.92,0-3-2.39-3.69-4.34-.7-1.28.17-1.82,1.12-2.22a9.79,9.79,0,0,1,3.65-.47c17.25,0,34.51,0,51.76,0,1.79,0,4.07-.62,4.91,2a27.9,27.9,0,0,1-8.18,4.27c-15.94,1-31.89.38-47.83.35A2.52,2.52,0,0,0,58.9,192.67Z"/><path class="cls-23" d="M186.19,131.93a22.89,22.89,0,0,1-4.48-2.93c-1-1.63.42-2.49,1.18-3.48,8.38-10.79,17.12-21.3,25.51-32.1,1-1.29,2.07-2.1,3.75-1.31a10.42,10.42,0,0,1,5.3,1.41c-8.62,10.84-17.11,21.79-25.89,32.5C189.88,128.06,188.76,130.68,186.19,131.93Z"/><path class="cls-24" d="M52.61,95.76l.22-.07.16.18a1.83,1.83,0,0,0,2.23,0,.31.31,0,0,1,.46-.14c.48-.12.84-.34.88-.88l-.08.06c6-2.78,12-5.75,18.16-8.2l-.1.19.08-.2c0,.52.29.75.72.89l-.06-.07a1.46,1.46,0,0,0,.73.87,14.66,14.66,0,0,1,3.71,5.07c-1.25,2.63-4,3.09-6.27,4.14C66.33,101,59.1,104,52.19,107.76a18.75,18.75,0,0,1-3-5.8,3.25,3.25,0,0,0-.52-.9.51.51,0,0,1-.2-.61c-.34-.49-.18-1.22-.76-1.6l0,.05c-.33-.47-.22-1.15-.72-1.54v0c-.18-3.38,2-2.67,4-2.36a.31.31,0,0,1,.44.2A1.89,1.89,0,0,0,52.61,95.76Z"/><path class="cls-25" d="M136.56,237.66a3.23,3.23,0,0,0-1.9-3.3c-1.92-1.07-3.75-2.35-5.64-3.4-6.44-3.55-12.41-7.83-18.69-11.62-5.67-3.41-11.16-7.1-16.73-10.66a7.06,7.06,0,0,0-3.07-1.2,31.78,31.78,0,0,1,7.55-1.43c1.46-.36,2.62.38,3.74,1.12,12.1,8,24.51,15.43,36.7,23.25,1,.65,2.7,1.12,1.75,3A12.21,12.21,0,0,1,136.56,237.66Z"/><path class="cls-26" d="M52.19,107.76c.06-1.19,1-1.64,1.86-2.07,5.66-2.7,11.27-5.55,17-8,3-1.27,5.81-2.68,8.65-4.14h0c.08.39.4.61.63.89l0,0c.45.37.31,1.1.86,1.41A13.57,13.57,0,0,1,84.06,101c-7.16,4.35-15,7.25-22.49,11a24.51,24.51,0,0,1-5.71,2.52A16.39,16.39,0,0,1,53,109.22c-.42-.41-.21-1.16-.79-1.49Z"/><path class="cls-27" d="M109.93,202.37c2.09-.08,3.72,1.06,5.38,2.09s3.08,2,4.56,3c6.32,4.61,13.31,8.12,19.85,12.38,2.11,1.38,4.49,2.51,5.83,4.84a13.78,13.78,0,0,1-2.91,5.25c-12.35-8.33-25.16-16-37.6-24.14a3,3,0,0,1-1.22-1.35A25.44,25.44,0,0,1,109.93,202.37Z"/><path class="cls-28" d="M172.1,123.83c.87-2.8,3.28-4.5,5-6.6,3.51-4.22,6.72-8.68,10.25-12.88,1.88-2.24,3.44-4.74,5.56-6.78a14.48,14.48,0,0,0,2-3c1.4-2.25,3-4.22,6.09-3.91,2.26.1,4.57-.34,6.73.7-4.73,2.53-7.43,7.06-10.56,11.08-5.52,7.1-11.3,14-16.7,21.16-.88,1.18-1.79,2.39-3.38,2.71A21.21,21.21,0,0,1,172.1,123.83Z"/><path class="cls-29" d="M116.65,187.66c-.68-1-1.71-.81-2.67-.81H58.06c-1.18,0-2.58-.33-2.85,1.48a8.77,8.77,0,0,1-1.61-4.2c.49-2.63,2.63-2,4.3-2.06,12-.06,24.06,0,36.09,0,7.48,0,15,0,22.46,0,2,0,4.36-.29,4.76,2.7v0c-.42.05-.63.38-.89.65A8.86,8.86,0,0,1,116.65,187.66Z"/><path class="cls-30" d="M207.6,168.34c-1.43.91-3,.75-4.64.75H169.13c.1-7.79-1-6.57,6.54-6.64,7-.07,14,0,20.94,0,2.29,0,4.56-.81,6.85-.12A19.8,19.8,0,0,1,207.6,168.34Z"/><path class="cls-31" d="M205.31,80.42c-10.28-.82-20.56-1.2-30.84-.08-3.77.41-7.52.92-11.28,1.38-7.55.66-15.12.47-22.68.51-2.09,0-4.16-.06-6.23-.23a14.58,14.58,0,0,1-5-4c1-2.4,3.26-1.77,5.07-1.79,10.57-.09,21.14,0,31.71,0s21.14,0,31.71,0a16.07,16.07,0,0,1,6.48,1.11A10.94,10.94,0,0,1,207,79.51C207,80.84,206.22,80.77,205.31,80.42Z"/><path class="cls-32" d="M195.77,139.44a16.88,16.88,0,0,1-3.69-3.1c-1.14-2,.44-3.31,1.39-4.57,5.9-7.87,11.92-15.65,18.28-23.15,2.38-2.82,4-6.21,6.91-8.62.87-.74,1.49-2.16,3.05-1.22l0,0c.36.46.24,1.19.87,1.49a11.18,11.18,0,0,1,2.22,4.45c-4.65,3-7.3,7.91-10.72,12C207.87,124.23,202,132,195.77,139.44Z"/><path class="cls-33" d="M58.9,192.67c-.14-.45-.4-1.16.12-1.28a14.27,14.27,0,0,1,2.93-.11c14.24,0,28.48-.06,42.72.11,1.17,0,2.87-1.62,3.8.54l-.21.19-.29,0c-.39,0-.64.34-1,.51l-.31.19h-.37c-.44.39-1.11.23-1.54.65a56.82,56.82,0,0,1-28.74,4.09c-4.61-.51-9.21-1.2-13.44-3.31-.44-.47-1.13-.32-1.61-.67h-.34l-.29-.19a2.42,2.42,0,0,0-.95-.53l-.29,0Z"/><path class="cls-34" d="M207.61,152a34.74,34.74,0,0,1-4.43-5.18c-1.11-1.64.1-2.82,1-3.9,7-8.93,14-17.92,21.07-26.82,1-1.21,2.35-3.58,3.84-.26a11.79,11.79,0,0,1,1.42,5.19,43.1,43.1,0,0,1-5.53,7.77c-4.7,5.68-9.12,11.58-14,17.11C209.35,147.72,209.05,150.14,207.61,152Z"/><path class="cls-35" d="M207.61,152c-.25-2.51.91-4.52,2.38-6.34,5.81-7.18,12-14.08,17.29-21.64a9.83,9.83,0,0,1,3.19-3,22.6,22.6,0,0,1,1.54,8.12c-3.31,6-8.17,10.91-12.37,16.26-2.83,3.6-5.19,7.7-9.1,10.39A14.63,14.63,0,0,1,207.61,152Z"/><path class="cls-36" d="M595.12,138c0,5.67,0,11.34,0,17a3.06,3.06,0,0,1-4.75,2.68,2,2,0,0,1-.8-1.93c0-1.72,0-3.45,0-5.17,0-9.49,0-19,0-28.47,0-3.26,1.17-4.11,4.27-3.39,1.61.38,1.28,1.59,1.28,2.63C595.13,126.93,595.12,132.48,595.12,138Z"/><path class="cls-37" d="M177.15,126.27c7.63-9.69,15.23-19.39,22.89-29.06,1.21-1.53,2.74-2.79,3.76-4.5.9-1.5,2.55-1.24,4-1.39,1.48.11,3-.18,4.36.79a3,3,0,0,0-2.54,1.12c-5.27,6.74-10.62,13.42-15.94,20.12-3.58,4.49-7.15,9-10.76,13.45-.54.68-1.19,1.26-1.2,2.2a13.54,13.54,0,0,1-3.73-2.17,6.68,6.68,0,0,0-.8-.6Z"/><path class="cls-38" d="M229.05,115.83c-1.06-1.39-1.94-.93-2.82.23-2.37,3.12-4.72,6.26-7.14,9.33q-7,9-14.15,17.85a6.82,6.82,0,0,0-1.76,3.57,16.87,16.87,0,0,1-3.67-3.78c-1.23-1.44-.2-2.5.6-3.57,7.08-9.43,14.71-18.43,21.95-27.74,1.08-1.39,2.15-3.51,4.68-2.54A20.63,20.63,0,0,1,229.05,115.83Z"/><path class="cls-39" d="M226.74,109.18c-2.37.53-3.58,2.48-4.93,4.17-5.72,7.16-11.29,14.43-17.06,21.55-1.61,2-2.82,4.31-4.78,6-.6.52-.5,1.34-.46,2.09a16.55,16.55,0,0,1-3.74-3.59c.17-2.88,2.58-4.42,4.1-6.39,5.29-6.89,10.89-13.55,16.34-20.31,1.53-1.91,2.86-4,4.49-5.8,1-1.16,1.8-3.18,4.07-2.24A10.75,10.75,0,0,1,226.74,109.18Z"/><path class="cls-40" d="M204.21,77.25c-8.35,0-16.7.1-25.05.11-15.35,0-30.7,0-46,0-1.3,0-2.73-.47-3.88.6a10.24,10.24,0,0,1-3.35-3.48c10.83,0,21.65-.09,32.48-.09q21.23,0,42.44,0A9.52,9.52,0,0,1,204.21,77.25Z"/><path class="cls-41" d="M103.82,204.49c3.83,1.18,6.71,4,10.05,6,6.53,3.89,13,7.83,19.29,12.15,3.27,2.26,7.29,3.68,9.48,7.37a8,8,0,0,1-2.37,3.44c0-1-.78-1.41-1.53-1.87-7.51-4.6-15.07-9.11-22.48-13.88-6-3.9-12-7.94-18.18-11.62A16.4,16.4,0,0,1,103.82,204.49Z"/><path class="cls-42" d="M86.45,163.1a50.19,50.19,0,0,1,7.46,4.37c-1.2,2.36-3.48,2-5.49,2-10.66.08-21.33.06-32,0-2.4,0-4.62.3-6.46,2a23.45,23.45,0,0,1-1.47-8.29l.53-.5a177,177,0,0,1,36.75.14A2.61,2.61,0,0,1,86.45,163.1Z"/><path class="cls-43" d="M161.69,119.58c-2.09-.09-3.93-1.11-5.9-1.64-1.56-.83-.78-1.88-.15-2.74,5.44-7.46,11.35-14.53,17.17-21.69a4.83,4.83,0,0,1,2.2-1.23c3.43-.66,6.83-1.54,10.36-1.49-4.32,5.42-8.84,10.68-13.11,16.14C168.87,111.26,165.68,115.76,161.69,119.58Z"/><path class="cls-44" d="M94.21,84.11h-.29l-.22-.2a2.14,2.14,0,0,1,1.23-2.43,136.21,136.21,0,0,1,16-8.16,1.79,1.79,0,0,1,1.41.24l0,0a1.36,1.36,0,0,0,.74.85l0,0a3.42,3.42,0,0,0,.7.82l9.58,10.5c-.76,1.13-1.7.64-2.45.62-6.26-.2-12.51.63-18.77.1a12.54,12.54,0,0,1-4.65-1c-.45-.33-1.09-.19-1.51-.59l-.71-.19A3.46,3.46,0,0,0,94.21,84.11Z"/><path class="cls-45" d="M111.54,175.7l-55.47.05-3,0c-1.07,0-1.5.68-1.67,1.62a3.85,3.85,0,0,1-.75-2.88c-.83-2.27.33-3.2,2.39-3.51a29.74,29.74,0,0,1,4.43-.17c11.7,0,23.41,0,35.12,0a35.22,35.22,0,0,1,10.23,1.14A44.84,44.84,0,0,1,111.54,175.7Z"/><path class="cls-46" d="M152.91,203.24a24.47,24.47,0,0,1-2.2,8.18c-5-5.31-11.53-8.59-17.56-12.52-2.23-1.45-4.82-2.41-6.37-4.77a44.09,44.09,0,0,1,6.76-4.37c1.35-.9,2.53-.3,3.75.38,4.48,2.51,8.71,5.41,13.06,8.12C152.1,199.35,154,200.61,152.91,203.24Z"/><path class="cls-47" d="M210.54,155.79c2-3.81,5-6.92,7.77-10.14,2.91-3.43,5.23-7.31,8.44-10.5,1.88-1.88,3-4.45,5.26-6a.4.4,0,0,1,.06.55c.72,1.47-.19,3.16.62,4.63.76,5.26,1.18,10.53.15,15.82l-.17-3.18c-1.57-2.07-.44-4.53-1-7.16-4.11,5.41-8.36,10.37-12.27,15.6a25.25,25.25,0,0,1-5.16,5.66A24,24,0,0,1,210.54,155.79Z"/><path class="cls-48" d="M61.89,127.51c.74-1.29,2.11-1.65,3.32-2.22q9.18-4.29,18.41-8.49c1.53-.7,3-1.79,4.85-1,1.07,3.89.23,7.9.7,11.82-.26.08-.63.08-.67-.09-.83-3.83-3-2.89-5.42-1.64-4.58,2.39-9.64,3.78-13.82,7Z"/><path class="cls-49" d="M55.86,114.54c.61-1.57,2.12-2,3.45-2.56,5.24-2.1,10.08-5.07,15.29-7.18,3.13-1.27,6-3.42,9.46-3.76a12.16,12.16,0,0,1,2.16,5.19l-15.66,7.11c-2.68,1.22-5.38,2.38-8,3.66-1.5.73-3,1.3-3.87,3.12s-2.85.66-4.35.84c1.14-.84,2.59-.41,3.92-.92C58.15,117.89,56.14,116.57,55.86,114.54Z"/><path class="cls-50" d="M102.86,171.94,56,172.05c-1,0-2,.07-3,0-1.86-.15-2.35.91-2.36,2.47a4.23,4.23,0,0,1-.73-3c.42-3.06.42-3.11,3.18-3.12q17.88,0,35.78,0c1.72,0,3.46.13,5-.88A63.86,63.86,0,0,1,102.86,171.94Z"/><path class="cls-51" d="M117.29,62a11,11,0,0,1-2.24-4.44c.45-2.5,2.58-2,4.09-2,5.53-.13,11.07-.34,16.57.59,3.76.62,7.61-.27,11.38.48a78.57,78.57,0,0,1,25,3.74c-1.5,1.51-3.43,1.1-5.23,1.1q-22.26,0-44.53,0A14.35,14.35,0,0,0,117.29,62Z"/><path class="cls-52" d="M221.71,98.78c-3.42,1.71-5.05,5.08-7.29,7.88q-6.75,8.4-13.41,16.88c-2.48,3.16-5.33,6-7.39,9.53a8.78,8.78,0,0,0-1.54,3.27,16.56,16.56,0,0,1-3.69-2.87c.9-4,4.23-6.43,6.57-9.46,5.39-7,11.07-13.71,16.27-20.83,1.89-2.58,4.22-4.76,6.23-7.23.69-.85,1.67-1.71,2.59-.11C220.66,96.79,221.55,97.58,221.71,98.78Z"/><path class="cls-53" d="M329.71,199.31l1.28-1a7.37,7.37,0,0,1,7.95-1.07c2.91,1.33,4,3.86,4.05,6.87.08,3.57,0,7.13.07,10.69,0,1.42-.21,2.29-2,2.27s-1.81-1.17-1.81-2.44c0-2.71,0-5.41,0-8.11a20.16,20.16,0,0,0-.09-2.58c-.37-2.49-1.8-4-3.94-4.21a5.06,5.06,0,0,0-5,3.08,7.94,7.94,0,0,0-.54,3.6c0,2.95,0,5.9,0,8.85,0,1.17-.34,1.81-1.68,1.79s-2.11-.19-2.1-1.77c0-5.53,0-11.06,0-16.59,0-.56-.21-1.35.64-1.47s2-.56,2.58.62A13.55,13.55,0,0,1,329.71,199.31Z"/><path class="cls-53" d="M458.82,214.6c-1.87,1.77-3.63,2.72-5.88,2.74-4,0-6.72-1.89-7.06-6-.36-4.29-.15-8.62-.21-12.93,0-1.23.71-1.4,1.68-1.35s2.08-.23,2.08,1.32c0,2.71,0,5.43,0,8.14a25.2,25.2,0,0,0,.13,3.69c.38,2.46,1.69,3.79,3.67,4a4.89,4.89,0,0,0,5.15-3.35,9.57,9.57,0,0,0,.4-3.28c0-2.71,0-5.42,0-8.13,0-1.28-.13-2.39,1.8-2.42,2.08,0,2.07,1.09,2.06,2.58,0,5.17,0,10.35,0,15.53,0,.7.26,1.64-.77,1.76s-2.29.58-2.7-1C459.09,215.56,459,215.21,458.82,214.6Z"/><path class="cls-54" d="M194.9,152.86a14.66,14.66,0,0,0-5.42-.8c-5.66.05-11.32,0-17,0-3.93,0-3.93,0-4.2,4-.9-2.41-.63-4.94-.74-7.42-.53-4.51-.18-5.19,4.14-5,4.11.16,8.26-1.52,12.33.25l-.06,0c.24.59,1,.4,1.31.91A50.56,50.56,0,0,1,194.9,152.86Z"/><path class="cls-55" d="M161.69,119.58c.43-2.15,2-3.61,3.36-5.12,3.88-4.4,7.25-9.17,10.93-13.72,2.3-2.84,4.73-5.57,6.94-8.49.53-.7,1.62-1,2.45-1.46l3.73-.12c-.92,3.93-4.3,6.12-6.57,9.07-5.49,7.13-11.27,14.05-16.45,21.43a6.07,6.07,0,0,1-2.89-1c-.43-.39-1.07-.27-1.5-.64Z"/><path class="cls-56" d="M121.21,184.77c-1-2-2.83-1.62-4.52-1.62H65.42c-3,0-5.9,0-8.85,0-1.09,0-2.26-.18-3,1a1.83,1.83,0,0,1-.61-1.7c.15-.78.46-1.42,1.37-1.45s2,0,3,0q30.09,0,60.17,0a18,18,0,0,0,5.8-.76,4,4,0,0,1,2.84,1.11A18.06,18.06,0,0,1,121.21,184.77Z"/><path class="cls-57" d="M152.91,203.24c.33-2.9-2.25-3.69-3.9-4.82-4-2.75-8.3-5-12.42-7.63a5.35,5.35,0,0,0-3.05-1,62.21,62.21,0,0,1,6.86-5.1c.29-.51,1.06-.32,1.31-.89h0c4.78,1.23,8.26,4.67,12.16,7.33,1.58,1.07.92,3.14.59,4.83A19.08,19.08,0,0,1,152.91,203.24Z"/><path class="cls-58" d="M48.49,163.19c-1-2.08-.66-4.33-.76-6.53a2.45,2.45,0,0,1,.21-2.66,5.18,5.18,0,0,1,3.13-.82c7.44-.14,14.89.07,22.33-.15a2.78,2.78,0,0,1,1.71.56l0,.06a1.4,1.4,0,0,1,.6.67,32.6,32.6,0,0,1,4.63,4.39c-1.94,1.93-4.47,1.82-6.89,1.86-6.5.11-13,.08-19.51,0-2.27,0-4.07.61-5.33,2.55Z"/><path class="cls-59" d="M220.05,95.84a1.3,1.3,0,0,0-1.9.32c-3.86,5-7.87,10-11.77,15-4.41,5.7-8.86,11.42-13.58,16.89-1.52,1.76-2.94,3.61-4.41,5.42a5.67,5.67,0,0,1-2.2-1.54c2-3.86,5.18-6.76,7.75-10.17,3.23-4.28,6.53-8.52,10-12.61,4-4.75,7.38-10,11.67-14.56a3.26,3.26,0,0,1,1.84-1.07c1.46,0,2.65.77,4,1.27C221.09,95.55,220.13,95.06,220.05,95.84Z"/><path class="cls-60" d="M189.15,67Q157.1,67,125,67c-1.39,0-3-.57-4.1.91a3.66,3.66,0,0,1-1.46-2.25c.24-2.14,2-2,3.34-2q28.23-.09,56.45,0a20.05,20.05,0,0,1,5.38,1.06A11,11,0,0,1,189.15,67Z"/><path class="cls-61" d="M214.2,161.06c.08-.36,0-.81.24-1.07,3.48-4.38,7.08-8.68,10.47-13.13,1.56-2,3.55-3.76,4.64-6.15a3,3,0,0,1,3.12-2.06V147a6,6,0,0,0-3.36,2.7c-2.55,4.59-7.17,7.59-9.36,12.41-.68,1.49-3.13,1.76-2.72,4A19.2,19.2,0,0,1,214.2,161.06Z"/><path class="cls-62" d="M682.53,114.27c.71.68.93,1.34-.39,1.19a45.74,45.74,0,0,0-11,.19,24.2,24.2,0,0,0-5.4,1.11,7.43,7.43,0,0,1-8.48-1.64,2,2,0,0,0-.71-.69l0,0a2.43,2.43,0,0,0-.69-.74v0c-.21-.27-.43-.53-.67-.79h0a1.88,1.88,0,0,1-.6-.79,1.8,1.8,0,0,1-.28-.51,1.87,1.87,0,0,0-.6-.91h0c.21-1.94,1.87-1.76,3.05-1.79,6.18-.15,12.38-.55,18.45,1a1.67,1.67,0,0,1,.58.16c.34.12.6.39.95.51a1.54,1.54,0,0,1,.54.2,7.77,7.77,0,0,0,.93.54,1.83,1.83,0,0,1,.54.23,3.05,3.05,0,0,1,.85.58h0a1.2,1.2,0,0,0,.89.6,1.83,1.83,0,0,1,.51.29,3.74,3.74,0,0,1,.81.61h0A2.42,2.42,0,0,0,682.53,114.27Z"/><path class="cls-63" d="M69.26,132.87a2.28,2.28,0,0,1,1.24-2.1c5.72-3,11.69-5.34,17.55-7.93,1,1.71-.24,3.54,1.12,4.81a7.64,7.64,0,0,1,.72,3.7c-3.55.36-6.41,2.39-9.46,4a32.26,32.26,0,0,1-6,2.76Z"/><path class="cls-64" d="M184.64,64.8q-30.52,0-61.06,0c-1.39,0-3-.57-4.11.88a3.65,3.65,0,0,1-1.4-2.35c.37-2.06,2.07-1.84,3.45-1.84q25.44-.09,50.87,0a30.27,30.27,0,0,1,6.52,1A14.83,14.83,0,0,1,184.64,64.8Z"/><path class="cls-65" d="M175,92.28c-2.85,2.87-5.11,6.21-7.6,9.37-3.72,4.68-7.67,9.18-11.16,14-.54.76-1,1.34-.46,2.24a10.81,10.81,0,0,1-4.44-1.51c-.26-.18-.52-.37-.76-.57v0c0-1.08.79-1.73,1.37-2.53,3.2-4.48,7.47-8.12,10.21-13a12.55,12.55,0,0,1,2.54-2.67,3.77,3.77,0,0,0,1.47-3.22A35.29,35.29,0,0,1,175,92.28Z"/><path class="cls-66" d="M64.71,143.24c2.7,1.93,5.41,3.86,7.36,6.64-.44.21.2.14-.28.23a60.2,60.2,0,0,1-24-.11c-1-7.74-.82-8,6.84-8C58,142,61.5,141.5,64.71,143.24Z"/><path class="cls-67" d="M126.78,194.13a155.22,155.22,0,0,1,15.16,9.37,54.91,54.91,0,0,0,6.19,3.88,4.2,4.2,0,0,1,2.58,4,2.64,2.64,0,0,1-.66,2.1c-1.43,1-2.61.1-3.7-.62-6.5-4.34-13.19-8.36-19.72-12.64-1.52-1-3.09-2-3.63-4A9.94,9.94,0,0,1,126.78,194.13Z"/><path class="cls-68" d="M74.64,86.76A21.85,21.85,0,0,1,67,91.13a30.11,30.11,0,0,0-5.31,2.49A7.58,7.58,0,0,1,56.49,95c.54-2,.11-4.11.1-6.16a1.89,1.89,0,0,1,.72-2.59c3.89-2,7.55-4.56,12-5.17A22,22,0,0,1,74.64,86.76Z"/><path class="cls-69" d="M73.64,69.36a10.41,10.41,0,0,1-3.8-3.57,1,1,0,0,1,.64-1.47C78.77,60.46,87,56.47,95.23,52.47a2.54,2.54,0,0,1,2.12-.23h0c.27.24.53.48.81.69a7.34,7.34,0,0,1,2.88,3,3.06,3.06,0,0,1-1.61,1.42c-8,3.54-15.69,7.83-23.7,11.4A7,7,0,0,1,73.64,69.36Z"/><path class="cls-70" d="M48.66,163.14c0-3.63,0-3.65,3.54-3.66,5.14,0,10.29,0,15.43,0,4.27,0,8.55.19,12.76-.76h0a2,2,0,0,0,.89.72,24.48,24.48,0,0,1,5.18,3.68Z"/><path class="cls-71" d="M178.91,62.51q-28.33,0-56.67.09c-1.4,0-3-.56-4.17.75a1.62,1.62,0,0,1-.78-1.38c.15-1,.62-1.59,1.68-1.59l3,0,50.22,0A18.42,18.42,0,0,1,178.91,62.51Z"/><path class="cls-72" d="M397.11,217.31c-7.11.27-10.32-4.59-10.49-9.5-.22-6,3.6-10.62,9.39-11.19a12,12,0,0,1,5.1.55,1.25,1.25,0,0,1,1,1.62c-.18,1-.56,1.65-1.71,1.35a8.55,8.55,0,0,0-5.06-.21,7.32,7.32,0,0,0-4.9,8.1c.49,3.93,3,6.28,6.86,6.28a8.81,8.81,0,0,0,2.91-.34c1.09-.38,1.6-.17,1.86.93a1.45,1.45,0,0,1-1.13,1.93A14,14,0,0,1,397.11,217.31Z"/><path class="cls-73" d="M73.64,69.36c1.08-2.3,3.66-2.57,5.49-3.32,7-2.89,13.39-7.1,20.51-9.75a13.23,13.23,0,0,1,1.41-.36,7.19,7.19,0,0,1,2.33,4.41C94.51,64,86.07,68.59,77.29,72.43A11,11,0,0,1,73.64,69.36Z"/><path class="cls-74" d="M184,143.85c-4.71.4-9.39,1.08-14.15.88-2.06-.09-2.07.13-2.32,3.9-1-5.4-2-10.79-3.13-16.79C171.71,135.46,178.26,139,184,143.85Z"/><path class="cls-72" d="M633.4,192.51a10.28,10.28,0,0,1,.2,1.2c.14,3.15.14,3.15,3.33,3.4.79.07,1.84-.23,1.85,1.13,0,.61.06,1.32-.64,1.56a6.75,6.75,0,0,1-1.81.18c-2.68.18-2.69.17-2.71,2.86s-.07,5.16,0,7.74c.09,2.82.41,3.21,3.37,3.63,1.12.16,1.46.58,1.51,1.59.06,1.22-.73,1.33-1.64,1.46-4.52.64-6.74-1.15-6.9-5.79-.11-3.06-.07-6.14,0-9.21,0-1.36-.06-2.43-1.85-2.32-1,.06-1.16-.67-1.2-1.49s.34-1.39,1.27-1.33c1.21.08,1.92-.37,1.76-1.67C629.57,192.64,631.52,192.72,633.4,192.51Z"/><path class="cls-75" d="M74.43,138.06c1.47-2.46,4.44-2.65,6.58-4.16,1.87-1.32,4.34-2,6.46-3.18,1.18-.64,1.75-.09,2.42.63a28,28,0,0,1,1.68,6.55c-1.43,2.06-4,2.08-5.95,3.19-1.78,1-3.64,1.87-5.38,2.95A22.34,22.34,0,0,1,74.43,138.06Z"/><path class="cls-76" d="M123,196.3a179.35,179.35,0,0,0,19.57,12.81c2.5,1.45,4.42,3.9,7.48,4.41a9.83,9.83,0,0,1-1.59,4.44c0-1.37-1.2-1.82-2.09-2.38-6.72-4.21-13.53-8.29-20.22-12.55-2.47-1.57-4.67-3.56-7.53-4.44A12.94,12.94,0,0,1,123,196.3Z"/><path class="cls-77" d="M47.84,149.88H72.07a13.1,13.1,0,0,1,3,3.71,16.94,16.94,0,0,1-5.8.72c-7.14,0-14.27,0-21.41,0A5.3,5.3,0,0,1,47.84,149.88Z"/><path class="cls-78" d="M91.45,47.79a6.93,6.93,0,0,1,3,2.18A2.39,2.39,0,0,1,93,51.53C84.56,55.41,76.43,60,67.76,63.37a6.41,6.41,0,0,1-2.2-3c-.2-2.28,1.7-2.87,3.15-3.5C75,54.13,81,50.73,87.28,48.09,88.66,47.52,90,46.92,91.45,47.79Z"/><path class="cls-79" d="M67.76,63.37c1.12-2,3.29-2.53,5.15-3.27,6.27-2.5,12-6.05,18.22-8.66,1.12-.47,2.23-1,3.34-1.47a6.37,6.37,0,0,1,2.88,2.27c-2.82,1.47-5.68,2.86-8.44,4.42C84,59.44,78.51,61,73.78,64.05c-1.25.81-3,.25-3.94,1.74A5.62,5.62,0,0,1,67.76,63.37Z"/><path class="cls-80" d="M69.35,81c-2.51,1.77-5.41,2.75-8.11,4.12-1.74.89-4.23,1-4.65,3.64l-2.88-8.43a8.79,8.79,0,0,1,10.23-4.43A22.23,22.23,0,0,1,69.35,81Z"/><path class="cls-81" d="M112.3,73.57Q104,77.73,95.75,81.89a4.78,4.78,0,0,0-2,2A8.25,8.25,0,0,1,90,81.85a1.37,1.37,0,0,0-1-.66.29.29,0,0,1-.39-.22c-.17-2,1.45-2.46,2.71-3,5.06-2.24,10-4.68,15-7.13,1.24-.62,2.52-1,3.83-.15A7,7,0,0,1,112.3,73.57Z"/><path class="cls-82" d="M82.57,76.65A4.62,4.62,0,0,1,80.38,75c-.83-2.28,1.18-2.69,2.41-3.36A139.18,139.18,0,0,1,98.6,63.9c1.82-.7,3-3.26,5.47-2.08a12.5,12.5,0,0,1,2.24,3.7C98.74,70,91.21,74.48,82.57,76.65Z"/><path class="cls-83" d="M154.42,195.93c.58-3.09-1.22-4.74-3.62-6a81.08,81.08,0,0,1-9.12-6.12,13.76,13.76,0,0,1,4.31-3.65,1.57,1.57,0,0,0,.91-.75h0c4.5,0,9.21,4,9,7.6A24.13,24.13,0,0,1,154.42,195.93Z"/><path class="cls-84" d="M134.28,82c.62-1,1.63-.93,2.61-.93h24.28a2.43,2.43,0,0,1,2,.65c-4.37,1.21-8.74,2.41-13.07,3.74C144.28,87.26,139,85.55,134.28,82Z"/><path class="cls-85" d="M101,159.52a98.85,98.85,0,0,1-15.53-11c1.48-3.76,4.85-4.14,8.2-4.55a101.84,101.84,0,0,0,8.21,14.67C102.07,159.36,101.84,159.72,101,159.52Z"/><path class="cls-86" d="M681.07,163.36c-4.94,5-11.05,7.34-18.42,8.09l4.27-8.28c2.63-2.25,11.28-2.76,14-.81C681.24,162.63,681.05,163,681.07,163.36Z"/><path class="cls-87" d="M91.45,47.79c-3.63.3-6.51,2.57-9.75,3.88-4.13,1.67-7.92,4.14-12.1,5.77a7.55,7.55,0,0,0-4,2.93,4.2,4.2,0,0,1-1.45-2.29c-1-1.57-.12-2.5,1.17-3.24,6.27-3.59,13-6.15,19.5-9.33a3.6,3.6,0,0,1,3.2,0A9,9,0,0,1,91.45,47.79Z"/><path class="cls-88" d="M81.77,41.16a14.68,14.68,0,0,1,4,2.81c-7.71,3.8-15.3,7.85-23.19,11.28a1.76,1.76,0,0,1-.75-1.46c-.37-.46-.22-1.16-.73-1.56v0c-.8-1.68.34-2.59,1.51-3.2C68,46.28,73.44,43.46,79,41A2.56,2.56,0,0,1,81.77,41.16Z"/><path class="cls-36" d="M747.2,199.73a7,7,0,0,1,4.07-3c.91-.21,2.13-.47,2.17,1.07,0,.94.59,2.06-1.25,2.45-3.7.79-4.66,2.12-4.77,5.83-.08,2.95-.07,5.9,0,8.85,0,1.57-.51,2.18-2.13,2.18s-1.73-1-1.74-2.14q0-7.94-.13-15.86c0-1-.1-2,1.39-2,1.3,0,2.19.2,2,1.77C746.8,199.05,747,199.25,747.2,199.73Z"/><path class="cls-89" d="M81.77,41.16c-2.6-.07-4.41,1.86-6.64,2.73C71,45.52,67,47.82,63,49.8a2.78,2.78,0,0,0-1.9,2.45,7.64,7.64,0,0,1-1.5-3.65,2.08,2.08,0,0,1,.76-2.88c5.4-3.2,10.84-6.33,17.1-7.6A15.83,15.83,0,0,1,81.77,41.16Z"/><path class="cls-90" d="M104.07,61.82c-.35.07-.82,0-1,.23-4.09,3.57-9.47,4.66-14,7.32-2.19,1.29-4.53,2.31-6.74,3.57-.78.45-1.84.84-1.88,2a8.6,8.6,0,0,1-3.09-2.56c1.64-2.58,4.55-3.27,7.06-4.34,5-2.1,9.72-4.63,14.53-7.05,1.47-.75,2.88-1.26,4.5-.7A1.66,1.66,0,0,1,104.07,61.82Z"/><path class="cls-91" d="M681.07,163.36c-.16-.18-.3-.5-.48-.52-4.57-.52-9.14-1-13.67.33a12.54,12.54,0,0,1,1.53-4.44,3,3,0,0,1,2.78-2.46,69.79,69.79,0,0,1,12.35.09c1.1.13,2.58.44,1.81,2.28A13.77,13.77,0,0,1,681.07,163.36Z"/><path class="cls-92" d="M47.84,149.88l.06,4.44c0,.78-.11,1.56-.17,2.34-1.06-2.47-.62-5.09-.61-7.64,0-3.67-.47-7.39.66-11,2.59-1.82,5.45-.89,8.22-.8h0c.32.54,1.06.35,1.41.83a31.91,31.91,0,0,1,7.32,5.2c-4.55,0-9.09-.05-13.64,0-3.19,0-3.19.06-3.24,3.35C47.81,147.66,47.83,148.77,47.84,149.88Z"/><path class="cls-93" d="M110,70.68a6,6,0,0,0-2.48.5Q99,75.29,90.44,79.37A3.51,3.51,0,0,0,88.53,81a6.67,6.67,0,0,1-3-2.1c-.36-1.42.68-2,1.62-2.54,5.92-3.21,12.23-5.62,18.22-8.71a2.21,2.21,0,0,1,2.44.1A7.43,7.43,0,0,1,110,70.68Z"/><path class="cls-94" d="M93.69,143.94c-2.63,1.7-6,2-8.2,4.55a14.89,14.89,0,0,1-4.43-3.7,1.37,1.37,0,0,0-.83-.77v0a3,3,0,0,1,2.24-2.61c3.09-1,5.82-3,9.09-3.53h0c.24.52.2,1.13.55,1.61A11.94,11.94,0,0,1,93.69,143.94Z"/><path class="cls-95" d="M147.09,56.6c-9.43,0-18.86,0-28.29.08-1.29,0-2.74-.47-3.75.85a5.38,5.38,0,0,1-1.41-3.07c-.77-2.37,1.13-2.27,2.43-2.42a31.24,31.24,0,0,1,8.69.14l.75.21a4.47,4.47,0,0,0,.91.5c1,.29,2.12.53,3.14.89a37.48,37.48,0,0,0,13.59,2.36A7.5,7.5,0,0,1,147.09,56.6Z"/><path class="cls-96" d="M63.94,75.94a15.72,15.72,0,0,0-10.23,4.43,26.05,26.05,0,0,1-2.93-5.23c-.46-.36-.25-1.15-.89-1.4l0,.06c.26-3.29,2.58-4.61,6.68-3.79l.06,0,.81.64,0,0a1.75,1.75,0,0,0,.92.71A23.28,23.28,0,0,1,63.94,75.94Z"/><path class="cls-97" d="M277.1,207.16c0-2.84,0-5.67,0-8.51,0-1.4.75-1.57,1.87-1.56s1.91.09,1.9,1.53c0,5.67,0,11.34,0,17,0,1.14-.63,1.47-1.66,1.43s-2.06.09-2.06-1.39c0-2.84,0-5.67,0-8.5Z"/><path class="cls-98" d="M56.61,70c-2.58.65-5.59.52-6.68,3.79L44,65.88a1,1,0,0,0-.78-1l.05.06a1.15,1.15,0,0,0-.72-.84l0,0a2,2,0,0,0-.72-.82v0a8.54,8.54,0,0,0-.69-.78l0,0a4.21,4.21,0,0,1-.66-.74l0-.07a1.48,1.48,0,0,1-.64-.69L39.74,61c-.6-1-.48-1.57.85-1.42a.53.53,0,0,1,.57.24,6.23,6.23,0,0,1,.8.54l0,0c.33.52,1,.36,1.42.81h0a2,2,0,0,0,1,.63.42.42,0,0,1,.5.24c.27.17.54.35.8.55l0,0c.32.51,1.05.34,1.38.83l.06,0A4,4,0,0,0,48,64,41.25,41.25,0,0,1,56.61,70Z"/><path class="cls-99" d="M155.87,187c-.1-1,0-2.09-.92-2.67-2.7-1.64-5.15-3.68-8.09-4.93a29,29,0,0,1,5.29-5.1,6.12,6.12,0,0,1,.72-.72l0,0a5.36,5.36,0,0,1,.72-.71l0,0a6.9,6.9,0,0,1,.71-.72h0a2.61,2.61,0,0,1,3,.71c0,.75-.06,1.49-.08,2.24-.88,1.94.17,4.09-.63,6C156.49,183.05,157,185.11,155.87,187Z"/><path class="cls-41" d="M644.68,159.33a20,20,0,0,1,5.1-1.42c4.88,1.51,9.53,3.35,12,8.32a6.77,6.77,0,0,1-2.91,3.85c-4.09-2.68-8-5.58-12.26-8.08C645.69,161.44,644.24,161,644.68,159.33Z"/><path class="cls-100" d="M675.14,109.89c-6,0-12,0-18,0-1.17,0-2.49-.41-3.45.72-2-2.08-2.65-4.79-3.72-8,1.29.75,2.07,1.22,2.85,1.66a20.49,20.49,0,0,0,9.73,2.77C666.86,107.19,671.25,107.54,675.14,109.89Z"/><path class="cls-101" d="M629.33,120.2l1.79.74c1.83-3.91,2.73-4.43,6.34-3.67A10.9,10.9,0,0,1,641,122.5c-2.54,2.59-6.55,2.94-8.86,5.87a27.47,27.47,0,0,1-3.8-7.23C628.13,120.25,628.54,120,629.33,120.2Z"/><path class="cls-102" d="M107.82,67.72a12,12,0,0,0-1.73.51q-8.72,4.14-17.41,8.33c-1.17.57-2.56.91-3.14,2.31a4.34,4.34,0,0,1-2.2-1.59,9.46,9.46,0,0,1-.78-.64h0c4.27-2,8.57-4,12.83-6.12q3.43-1.68,6.8-3.55a14.22,14.22,0,0,1,4.11-1.46A4.09,4.09,0,0,1,107.82,67.72Z"/><path class="cls-42" d="M640.45,143.13l8,4.49a4,4,0,0,1-3.34,1.07c-5.08,0-10.16.25-15.23-.24-.89-1.08-.71-2.39-.8-3.64a1.52,1.52,0,0,1,.27-1.95A15.12,15.12,0,0,1,640.45,143.13Z"/><path class="cls-103" d="M653.79,149.78a.48.48,0,0,1,.55.15.82.82,0,0,1,0,1.33l-.06,0c-.32.5-1.06.35-1.35.89a3.74,3.74,0,0,1-2.28,1.29c-6.13.89-12.32.06-18.46.65-1.3-.77-1.39-2.1-1.58-3.38.11-2,1.78-1.92,3-1.91C640.33,148.9,647.12,148.07,653.79,149.78Z"/><path class="cls-104" d="M654.94,170.65c-8.05-.73-14.42-4.5-19.78-10.86a4.62,4.62,0,0,1,3-.17,13.27,13.27,0,0,1,6.78,2.41c3,1.85,6,3.82,9,5.7,1,.63,2.53,1.24,1.72,3,0,0-.2.06-.3,0A1.43,1.43,0,0,1,654.94,170.65Z"/><path class="cls-105" d="M62.58,55.25c.11-.61.24-1.2.93-1.46C68.32,52,72.62,49,77.31,47c2.71-1.16,5.23-3.2,8.46-3.05A3.7,3.7,0,0,1,88,45.46c-4.36,1-7.9,3.88-12.08,5.24-3.75,1.22-6.82,3.73-10.44,5.12a1.93,1.93,0,0,0-1.35,2.26A4.55,4.55,0,0,1,62.58,55.25Z"/><path class="cls-106" d="M72.22,33.73a6,6,0,0,1,2.34,2.14c-.55,1.61-2.15,2-3.4,2.61a68.55,68.55,0,0,1-13.06,5.7c-.74-.59-.68-1.43-.7-2.24a2.48,2.48,0,0,1,.92-3.5,85.72,85.72,0,0,1,12.15-5.81c.32-.13.68.16,1,.39h0C71.74,33.25,72,33.49,72.22,33.73Z"/><path class="cls-107" d="M58.1,44.18c5.07-3.59,11.1-5.29,16.46-8.31a2.14,2.14,0,0,1,.65.25,1.47,1.47,0,0,1,.62.59,3,3,0,0,1,1.64,1.41Q70.21,41.6,63,45.05c-1.58.76-3.16,1.49-3.34,3.55A8.65,8.65,0,0,1,58.1,44.18Z"/><path class="cls-108" d="M683.86,146.17a9.59,9.59,0,0,1,2.21,5.16c-5.18.41-10.37,1.21-15.45-.65a6.67,6.67,0,0,1,0-4.76A18.43,18.43,0,0,1,683.86,146.17Z"/><path class="cls-109" d="M670.59,150.56c3.88,0,7.75,0,11.63,0a6.66,6.66,0,0,1,3.85.74,8.34,8.34,0,0,1,.73,4.43,87.72,87.72,0,0,0-17.6,0,7.74,7.74,0,0,1,.7-3.7,1.74,1.74,0,0,0,.42-1.18Z"/><path class="cls-110" d="M664,127.61a36.2,36.2,0,0,1-11.4-6.15,49.1,49.1,0,0,0,17.29-1.12A10.77,10.77,0,0,1,664,127.61Z"/><path class="cls-111" d="M632.16,128.37a2.45,2.45,0,0,1,1.54-2.61A29.46,29.46,0,0,1,641,122.5h0c.45.38.3,1,.67,1.45a5.09,5.09,0,0,1,.88,3.71,20.67,20.67,0,0,1-8.9,4.16l-3.44-1.78C630.75,129,632.14,129.56,632.16,128.37Z"/><path class="cls-112" d="M71.45,33,58.66,39.11c-1.23.58-1.21,1.72-1.26,2.83-.76-.59-.71-1.43-.72-2.26-.63-.63-.06-1.61-.67-2.24L55.89,36c2.84-1.85,5.54-4,8.79-5.09,1.43-.49,3-1.08,4.57-.08A4.87,4.87,0,0,1,71.45,33Z"/><path class="cls-113" d="M654.94,170.65c.79-.6.3-1-.24-1.37-4.62-2.92-9.26-5.82-13.88-8.74-.84-.52-2,0-2.71-.92l6.57-.29c3.49,3,7.73,4.92,11.39,7.68,1.11.84,2.7,1.3,2.82,3.07C657.77,171.61,656.4,171.42,654.94,170.65Z"/><path class="cls-43" d="M664,127.61q2.94-3.63,5.89-7.27a22.57,22.57,0,0,1,8.84-1.4c-3.66,3-5.56,7.72-9.71,10.3A12.53,12.53,0,0,1,664,127.61Z"/><path class="cls-114" d="M678,134.36a8.7,8.7,0,0,1-3-2.15c-.54-1.8,1-2.63,1.86-3.68,2.52-3.07,4.3-6.79,7.82-9,1.61.13,3.4-.07,3.78,2.19C685.48,126.35,681.48,130.14,678,134.36Z"/><path class="cls-115" d="M692.15,141.93a18.53,18.53,0,0,1-2.42,8.73c-1-2.17-1.92-4.1-2.82-6-.47-.35-.28-1.09-.82-1.41l0,0a2.19,2.19,0,0,1-.23-1.76c.63-2.85,4.77-7.36,5.71-6.38C693.38,137,692.37,139.6,692.15,141.93Z"/><path class="cls-116" d="M669.2,155.77a3.93,3.93,0,0,1,3.49-1.51c3.54.11,7.09.11,10.63,0a3.79,3.79,0,0,1,3.48,1.5c.34,1.36-.55,2.12-1.41,2.88-.15-1-.81-1.38-1.79-1.38-4.14,0-8.27.06-12.41,0-1.31,0-1.94.8-2.74,1.5A5.07,5.07,0,0,1,669.2,155.77Z"/><path class="cls-117" d="M684.68,119.53,675,132.21a5.79,5.79,0,0,1-2.89-1.59c1.07-4.56,4.43-7.6,7.43-10.79,1.25-1.32,3.4-.85,5.18-.33Z"/><path class="cls-118" d="M69.25,30.78a19,19,0,0,0-9.92,4.16,4.66,4.66,0,0,1-3.44,1c-1-.81-.6-1.93-.69-3,1.65-3.1,7.13-5.67,11.16-5.22A8.15,8.15,0,0,1,69.25,30.78Z"/><path class="cls-119" d="M669.93,138l-.07-.73c1.74-1.6,3.52-.73,5.29-.09l0,0c.25.56,1,.37,1.3.9a16.27,16.27,0,0,1,5.32,5.12c-3.51,1.94-7.13,1.29-10.76.48C669.38,142,671,139.78,669.93,138Z"/><path class="cls-120" d="M107.83,15.9a17.44,17.44,0,0,1,10.51,8.15,16.46,16.46,0,0,0-5.55,3.26c-1.83-3.57-3.08-7.47-5.85-10.52C106.79,16.05,107,15.67,107.83,15.9Z"/><path class="cls-121" d="M653.79,149.78c-6.48,0-13,0-19.45.1-1.29,0-2.74-.46-3.75.86a2.74,2.74,0,0,1-.68-2.29c.16-.58.25-1.1,1.14-1,5.8.46,11.62.13,17.43.2A19.83,19.83,0,0,1,653.79,149.78Z"/><path class="cls-122" d="M632.17,154.12c.15-.63.45-1.23,1.14-1.23,5.58,0,11.17-.3,16.75.15.2,0,.38.28.57.43C644.58,156.74,638.44,157.15,632.17,154.12Z"/><path class="cls-123" d="M682.5,138.61l-2.24-2.27c-.56-3.62,6.13-11.68,9.68-11.67a6.83,6.83,0,0,1,1.35,3.73C687.78,131.31,685.61,135.37,682.5,138.61Z"/><path class="cls-124" d="M661.8,166.23a17.54,17.54,0,0,0-5-4c-2.32-1.46-4.68-2.86-7-4.29a6.68,6.68,0,0,1,3.12-1.38c4.08-.58,10,3.25,10.33,6.64h0c-.48.44-.36,1.13-.67,1.64A1.55,1.55,0,0,1,661.8,166.23Z"/><path class="cls-19" d="M684.72,119.5c-3.15-.49-5.28.71-6.94,3.49a90.2,90.2,0,0,1-5.67,7.63,4.49,4.49,0,0,1-2.24-.87c-.26-.19-.53-.37-.8-.55l-.05,0c1.65-2.22,3.27-4.45,5-6.64a10.27,10.27,0,0,1,4.76-3.66C680.75,118.89,682.81,118.4,684.72,119.5Z"/><path class="cls-125" d="M689.94,124.67c-1.39,0-2.23,1-3,1.89-2,2.44-4,4.95-6,7.39a3.33,3.33,0,0,0-.72,2.39,5.67,5.67,0,0,1-2.25-2c.08-1.59,1.17-2.71,2.06-3.79,2.33-2.79,4.92-5.36,7.1-8.3.24-.32.85-.37,1.29-.55A4.74,4.74,0,0,1,689.94,124.67Z"/><path class="cls-126" d="M66.36,27.78C62.4,29,58.51,30.39,55.2,33c-1.24-1.31-.53-2.95-.75-4.43,2.14-2.88,6.63-4.6,9.61-3.7Z"/><path class="cls-127" d="M633.67,131.83a26.76,26.76,0,0,1,8.9-4.16,30.33,30.33,0,0,1,.66,5.92,9.78,9.78,0,0,1-5.11,2.08Z"/><path class="cls-128" d="M112.79,27.31c1.29-3,2.72-3.8,5.55-3.26a10.14,10.14,0,0,1,2.54,4.51c-1.71,2.05-3.55,3.82-6.56,3A9.61,9.61,0,0,1,112.79,27.31Z"/><path class="cls-129" d="M64.06,24.87a5,5,0,0,0-3.19.52,32,32,0,0,1-6.42,3.18c-1.15-1.06-.54-2.46-.73-3.71a1.4,1.4,0,0,1-.07-1.65c2.43-.88,4.4-3.46,7.46-2C62.09,22.4,63.08,23.63,64.06,24.87Z"/><path class="cls-130" d="M692.15,141.93v-6.72a13.85,13.85,0,0,0-6,8,4.2,4.2,0,0,1-1.49-2.12,2.62,2.62,0,0,0-.68-.9h0c.54-3.91,3.33-6.29,6-8.7.76-.69,1.6-.38,2.09.56A17.22,17.22,0,0,1,692.15,141.93Z"/><path class="cls-131" d="M650,112.1l4.82,5.29c-4.4,0-8.2,1.22-11.57-1.53C643.58,113.18,646.3,111.67,650,112.1Z"/><path class="cls-132" d="M122.43,33a17.12,17.12,0,0,1,2.42,4.21,1.75,1.75,0,0,0,.61,1v0c-.09,2-1.34,2.38-3,2.24l0,0a1.32,1.32,0,0,0-.88-.7l.08.07c-.18-.64-1-.44-1.27-1a11.55,11.55,0,0,1-3.94-3.61C118,33.17,119.39,31,122.43,33Z"/><path class="cls-133" d="M692.05,132.1c-1.06-.68-1.76-.14-2.48.64a62.2,62.2,0,0,0-5.63,7.5,3.07,3.07,0,0,1-1.44-1.63,2.83,2.83,0,0,1,.67-2.38,42.31,42.31,0,0,0,5.68-7.11c.61-.9,1.36-1.39,2.44-.72A5.65,5.65,0,0,1,692.05,132.1Z"/><path class="cls-134" d="M124.76,52.18c-2.18,1.33-4.62.31-6.9.75A21.32,21.32,0,0,1,115,53c-.89,0-1.19.68-1.33,1.44a2.48,2.48,0,0,1-.83-2c-.26-.55-.15-1.25-.66-1.7h0c-.73-2.39,1.16-2.28,2.49-2.46s2.84.47,4.22.93l0,0c.36.52,1.08.35,1.47.79A13.19,13.19,0,0,1,124.76,52.18Z"/><path class="cls-135" d="M670.77,143.23l11,0a5.74,5.74,0,0,1,2.13,3l-13.08,0A2.23,2.23,0,0,1,670.77,143.23Z"/><path class="cls-136" d="M665.5,154.36A14.25,14.25,0,0,1,664,161c-1.59-3-5.35-3.78-6.86-6.83a8.34,8.34,0,0,1,3-2.16,3.14,3.14,0,0,0,.85-.69h0C663.12,151.43,665,151.84,665.5,154.36Z"/><path class="cls-137" d="M640.45,143.13l-11.16.13c-.8-4,.17-5.13,4-4.87a12.16,12.16,0,0,1,3.45,1Z"/><path class="cls-138" d="M657.14,154.19c1.62,1.07,3.23,2.17,4.88,3.19a3.76,3.76,0,0,1,2,3.64,2.57,2.57,0,0,1-.77,2.15c-.14-.46-.14-1.13-.46-1.36-3-2.18-6.16-4.3-9.87-5.28a5.82,5.82,0,0,1,2.84-1.53c.26-.19.54-.37.81-.55A.89.89,0,0,1,657.14,154.19Z"/><path class="cls-139" d="M638.12,135.67c1.48-1.24,3-2.46,5.11-2.08q1.88,4.44,3.73,8.87h0a21.12,21.12,0,0,1-8.11-6,1.65,1.65,0,0,1-.64-.67Z"/><path class="cls-140" d="M637.46,117.27c-2.9-.13-4.63,1.75-6.34,3.67,1.28-2-.16-3.87-.47-5.78a4.18,4.18,0,0,1-.51-.8.59.59,0,0,1-.26-.59,3.58,3.58,0,0,0-.63-.92v0c-.49-.32-.28-1.13-.93-1.34l0,0c0-1.32.61-1.38,1.57-.83h0c.28.22.49.53.85.64l0,0a1.17,1.17,0,0,0,1,.73.34.34,0,0,1,.41.25,3.14,3.14,0,0,1,.75.61A14.38,14.38,0,0,1,637.46,117.27Z"/><path class="cls-141" d="M61.11,21.17a4.82,4.82,0,0,0-3.66,1.21,5.09,5.09,0,0,1-3.7,1,6.75,6.75,0,0,1,.15-5.31c.66-1.48,1.85-2.24,3.54-1.36h0c.22.27.5.49.74.74Z"/><path class="cls-142" d="M122.43,33c-2.62-.93-4,1.45-5.94,2.27a2.43,2.43,0,0,1-1.47-2,1.94,1.94,0,0,0-.5-1l-.2-.73c2.53-.23,4.21-2.34,6.56-3A10.46,10.46,0,0,1,122.43,33Z"/><path class="cls-143" d="M56,137.22c-2.62,1.48-5.48.54-8.22.8.11-1.67-.72-3.94.78-4.8s3,1.22,4.47,1.91A7.56,7.56,0,0,1,56,137.22Z"/><path class="cls-144" d="M118.87,49.23c-1.56,0-3.12.05-4.67,0-1.09,0-1.89.28-2,1.5a9.31,9.31,0,0,1-1.54-4.35c-.32-.48-.22-1.11-.55-1.59l-.13-.73c-.26-.79.13-.94.8-.81h0a1.6,1.6,0,0,0,.84.74Z"/><path class="cls-145" d="M636.76,139.42l-4,.08c-3.45.05-3.45.05-3.44,3.76l-.18,1.55c-1.08-2.2-.59-4.52-.55-6.8.25-2.32,1.26-3.42,3.66-2.26l0,0c.31.53,1,.36,1.37.86l.06,0c.29.19.54.43.82.64A5.16,5.16,0,0,1,636.76,139.42Z"/><path class="cls-146" d="M57.44,16.71c-3.63,1.3-3.71,1.45-3.69,6.67l0,1.48c-.89-.72-.72-1.74-.72-2.69,0-2.78,0-5.56,0-8.35,0-.74.15-1.54,1-1.77.64-.18,1.18.37,1.44.89C56.06,14.21,57.36,15.13,57.44,16.71Z"/><path class="cls-147" d="M51.08,95c-1.46.59-3.5.18-4,2.36a35.24,35.24,0,0,1-3.74-9.23Z"/><path class="cls-148" d="M637.37,111.34a2.39,2.39,0,0,1-1.46-1.5c2.21-3.51,5.48-4.71,9.48-4.31l.06,0a6,6,0,0,1,.77.65.84.84,0,0,1,.67.77C644,109,641,110.84,637.37,111.34Z"/><path class="cls-149" d="M647.7,108.44a5.3,5.3,0,0,1,1.34,2.24,22.94,22.94,0,0,1-8,3.67.74.74,0,0,1-.8-.58,1.11,1.11,0,0,0-.86-.78v0C640.56,110,644,108.12,647.7,108.44Z"/><path class="cls-150" d="M665.5,154.36l-4.49-3c1.37-1.67,3.13-2.84,5.16-4.59C666.22,149.74,666.61,152.1,665.5,154.36Z"/><path class="cls-151" d="M122.47,40.43l3-2.24a33.21,33.21,0,0,1,4.13,7.17A30.62,30.62,0,0,1,122.47,40.43Z"/><path class="cls-152" d="M647.7,108.44c-3,1.07-6.1,2-8.32,4.59a1.92,1.92,0,0,1-1.28-1,2.62,2.62,0,0,1-.7-.67l0,0c3-1.77,6-3.73,9.52-4.36A1.49,1.49,0,0,1,647.7,108.44Z"/><path class="cls-153" d="M632.1,102.6A15.82,15.82,0,0,1,630.76,96c0-1.48,1-2,2.15-1a9.07,9.07,0,0,1,2.91,3.18A44.53,44.53,0,0,0,632.1,102.6Z"/><path class="cls-154" d="M645.39,105.53a26.74,26.74,0,0,0-9.48,4.31,1.5,1.5,0,0,1-.92-1.23c1.66-3.5,4.87-4.23,8.27-4.61h0a1.81,1.81,0,0,0,1,.66A1.45,1.45,0,0,1,645.39,105.53Z"/><path class="cls-155" d="M278.85,193.73a2.11,2.11,0,0,1-2.1-2.39,2.17,2.17,0,0,1,2.45-2.12,2.2,2.2,0,0,1,2.14,2.46A2.15,2.15,0,0,1,278.85,193.73Z"/><path class="cls-156" d="M641,114.35a15.47,15.47,0,0,1,8-3.67,2.32,2.32,0,0,1,1,1.42c-2.26.35-4,1.88-6.17,2.54-.5.15-.49.76-.58,1.22A3.59,3.59,0,0,1,641,114.35Z"/><path class="cls-157" d="M632.1,102.6c-.22-2.71,1.37-3.92,3.72-4.49h0a10.09,10.09,0,0,1,.74.72,2.91,2.91,0,0,1,1.5,1.47c-1.24,2.07-4.15,2.19-5.2,4.48A2.58,2.58,0,0,1,632.1,102.6Z"/><path class="cls-158" d="M643.26,104c-2.71,1.61-5.9,2.38-8.27,4.61l-.63-.88c.26-3.27,3.62-5.29,7.62-4.57A1.54,1.54,0,0,1,643.26,104Z"/><path class="cls-159" d="M642,103.16c-2.76-.08-4.59,2-6.94,3-.58.22-.6,1-.68,1.62a1.68,1.68,0,0,1-.76-1.43c.29-3.2,2.24-4.66,6.16-4.63A3.53,3.53,0,0,1,642,103.16Z"/><path class="cls-160" d="M639.76,101.67c-2.28,1.25-5.26,1.56-6.16,4.63a1.83,1.83,0,0,1-.72-1.52,3,3,0,0,1,2.17-3.33c1-.36,2-.77,3-1.15A3.58,3.58,0,0,1,639.76,101.67Z"/><path class="cls-161" d="M675.15,137.2l-5.29.09a4.7,4.7,0,0,1-.51-3.69A15.71,15.71,0,0,1,675.15,137.2Z"/><path class="cls-162" d="M653.71,97.32q1.11,2.15,2.23,4.29a.66.66,0,0,1-.17,1,8.16,8.16,0,0,1-3.66-3.11C651.69,98.07,651.33,96.69,653.71,97.32Z"/><path class="cls-163" d="M653.71,97.32c-1.49,0-1.6,1.06-1.6,2.18-1.21-1.46-1.43-3.37-2.31-5a.88.88,0,0,1,.14-1.16A5.67,5.67,0,0,1,653.71,97.32Z"/><path class="cls-164" d="M157.33,172.78a5,5,0,0,1-3-.71,11.92,11.92,0,0,1,3.21-3.47C158.36,170.21,157.49,171.48,157.33,172.78Z"/><path class="cls-161" d="M670.77,143.23c0,1,0,2,0,3-.06,1.46-.13,2.92-.19,4.37h0c-.19.36-.39.35-.61,0L669.93,138C671.29,139.58,670.3,141.53,670.77,143.23Z"/><path class="cls-165" d="M632.22,135.75c-1.91-.36-3,.68-3.67,2.26a11.42,11.42,0,0,1,.22-4.16A5.43,5.43,0,0,1,632.22,135.75Z"/><path class="cls-166" d="M40.59,59.54A1.44,1.44,0,0,0,39.74,61l-3-2.85c-.24-.15-.33-.31-.26-.47s.13-.26.21-.26A9.77,9.77,0,0,1,40.59,59.54Z"/><path class="cls-164" d="M156.62,181.06c.15-2-.75-4.15.63-6C157.22,177.05,157.7,179.14,156.62,181.06Z"/><path class="cls-35" d="M232.69,134.32c-1.25-1.41-.54-3.07-.62-4.63C232.92,131.15,232.77,132.74,232.69,134.32Z"/><path class="cls-167" d="M626.26,108.22a4.57,4.57,0,0,1,2.4,1.56,1.75,1.75,0,0,1-1,1,4,4,0,0,1-1.46-1.53A.69.69,0,0,1,626.26,108.22Z"/><path class="cls-168" d="M101,159.52c.29-.31.59-.61.88-.91.72.29,1,1,1.46,1.54a.56.56,0,0,1-.07.85A4.09,4.09,0,0,1,101,159.52Z"/><path class="cls-169" d="M205.31,80.42c.56-.28,1.45,0,1.66-.91a.91.91,0,0,1,.83,1c-.09.69-.73.53-1.16.45A7.67,7.67,0,0,1,205.31,80.42Z"/><path class="cls-4" d="M122.42,240.14c1,0,2.17-.36,3,.58A4.22,4.22,0,0,1,122.42,240.14Z"/><path class="cls-170" d="M107.83,15.9l-.89.89c-.61-.29-1.6-.83-1.23-1.3C106.23,14.82,107.2,15.25,107.83,15.9Z"/><path class="cls-171" d="M51.59,121.13l.67,1.32a7.49,7.49,0,0,1-1.27-.39c-.27-.14-.45-.46-.68-.7A1.23,1.23,0,0,1,51.59,121.13Z"/><path class="cls-172" d="M627.64,110.79a1.84,1.84,0,0,1,1-1,1.64,1.64,0,0,1,1.24.9,1.76,1.76,0,0,0-1.57.83C627.9,111.46,627.73,111.16,627.64,110.79Z"/><path class="cls-173" d="M629.33,120.2l-1,.94c-.62-.31-.67-.93-.81-1.5a.69.69,0,0,1,.18-.88A2.65,2.65,0,0,1,629.33,120.2Z"/><path class="cls-174" d="M110.74,43.28l-.8.81c-.56-.52-1-1.28-.38-1.79C110,42,110.52,42.71,110.74,43.28Z"/><path class="cls-175" d="M36.73,57.38a2.54,2.54,0,0,1,0,.73c-.56-.18-1.26-.5-1-1.11S36.59,56.8,36.73,57.38Z"/><path class="cls-121" d="M654.32,151.26c0-.44,0-.89,0-1.33.32.08.88.12.9.25C655.34,150.83,655,151.18,654.32,151.26Z"/><path class="cls-176" d="M626.26,108.22l-.08,1c-.51-.3-1.22-.68-1-1.27S626,107.69,626.26,108.22Z"/><path class="cls-118" d="M56,37.44c.82.57.67,1.43.67,2.24A2.29,2.29,0,0,1,56,37.44Z"/><path class="cls-147" d="M55.22,95.92c-.77.88-1.51.88-2.23,0Z"/><path class="cls-4" d="M118.63,239.43c.86-.07,1.74-.24,2.4.56A2.84,2.84,0,0,1,118.63,239.43Z"/><path class="cls-177" d="M649.94,93.37c-.05.38-.09.77-.14,1.16-.51-.31-1.15-.73-1-1.3S649.61,92.83,649.94,93.37Z"/><path class="cls-172" d="M628.31,111.48a1.19,1.19,0,0,1,.93,1.34A1.69,1.69,0,0,1,628.31,111.48Z"/><path class="cls-166" d="M43.35,61.11a1.32,1.32,0,0,1-1.42-.81A1.56,1.56,0,0,1,43.35,61.11Z"/><path class="cls-98" d="M49.89,73.74a1.29,1.29,0,0,1,.89,1.4A1.69,1.69,0,0,1,49.89,73.74Z"/><path class="cls-108" d="M670,150.59l.61,0a1.46,1.46,0,0,1-.69,1.5Z"/><path class="cls-121" d="M652.91,152.18a1.34,1.34,0,0,1,1.35-.89A1.62,1.62,0,0,1,652.91,152.18Z"/><path class="cls-81" d="M95.85,84.79a1.55,1.55,0,0,1,1.51.59A1.47,1.47,0,0,1,95.85,84.79Z"/><path class="cls-83" d="M141.71,183.77a1.31,1.31,0,0,1-1.31.89A1.51,1.51,0,0,1,141.71,183.77Z"/><path class="cls-24" d="M52.18,107.73a1.39,1.39,0,0,1,.79,1.49A1.61,1.61,0,0,1,52.18,107.73Z"/><path class="cls-166" d="M47,63.35a1.33,1.33,0,0,1-1.38-.83A1.56,1.56,0,0,1,47,63.35Z"/><path class="cls-49" d="M86.94,108.43a1.64,1.64,0,0,1-.57-1.72A1.64,1.64,0,0,1,86.94,108.43Z"/><path class="cls-30" d="M208.48,169.78c-.73-.22-.88-.79-.88-1.45A1.7,1.7,0,0,1,208.48,169.78Z"/><path class="cls-22" d="M61,193.55a1.52,1.52,0,0,1,1.61.67A1.63,1.63,0,0,1,61,193.55Z"/><path class="cls-22" d="M104.79,193.44a1.53,1.53,0,0,1,1.54-.65A1.55,1.55,0,0,1,104.79,193.44Z"/><path class="cls-178" d="M655.77,102.61c.05-.34.11-.67.17-1,.48.33.95.74.5,1.34C656.24,103.22,655.9,102.94,655.77,102.61Z"/><path class="cls-52" d="M222.55,100.25c-.76-.22-.89-.81-.87-1.49A1.83,1.83,0,0,1,222.55,100.25Z"/><path class="cls-147" d="M47.74,98.85a1.4,1.4,0,0,1,.76,1.6A1.68,1.68,0,0,1,47.74,98.85Z"/><path class="cls-147" d="M47,97.36a1.37,1.37,0,0,1,.72,1.54A1.61,1.61,0,0,1,47,97.36Z"/><path class="cls-179" d="M103.29,161l.07-.85c.47.17.79.51.58,1S103.46,161.31,103.29,161Z"/><path class="cls-24" d="M81.21,95.83a1.37,1.37,0,0,1-.86-1.41A1.62,1.62,0,0,1,81.21,95.83Z"/><path class="cls-138" d="M662.56,164.81a1.46,1.46,0,0,1,.67-1.64A1.78,1.78,0,0,1,662.56,164.81Z"/><path class="cls-151" d="M120.43,38.86c.62.06,1.13.27,1.27,1A1.66,1.66,0,0,1,120.43,38.86Z"/><path class="cls-165" d="M633.56,136.59a1.37,1.37,0,0,1-1.37-.86A1.51,1.51,0,0,1,633.56,136.59Z"/><path class="cls-76" d="M147.78,219.67c-.09-.71-.05-1.37.69-1.75A2,2,0,0,1,147.78,219.67Z"/><path class="cls-174" d="M110.07,44.82a1.48,1.48,0,0,1,.55,1.59A1.55,1.55,0,0,1,110.07,44.82Z"/><path class="cls-75" d="M92.11,139.5a1.51,1.51,0,0,1-.55-1.6A1.5,1.5,0,0,1,92.11,139.5Z"/><path class="cls-144" d="M120.31,50a1.42,1.42,0,0,1-1.47-.79A1.7,1.7,0,0,1,120.31,50Z"/><path class="cls-144" d="M112.15,50.75a1.48,1.48,0,0,1,.66,1.7A1.9,1.9,0,0,1,112.15,50.75Z"/><path class="cls-130" d="M686.09,143.23a1.35,1.35,0,0,1,.82,1.41A1.74,1.74,0,0,1,686.09,143.23Z"/><path class="cls-161" d="M676.41,138.08a1.26,1.26,0,0,1-1.3-.9A1.48,1.48,0,0,1,676.41,138.08Z"/><path class="cls-89" d="M61.1,52.23a1.41,1.41,0,0,1,.73,1.56A1.75,1.75,0,0,1,61.1,52.23Z"/><path class="cls-180" d="M627.73,118.76l-.18.88c-.48-.32-.69-.76-.31-1.23C627.4,118.22,627.69,118.45,627.73,118.76Z"/><path class="cls-43" d="M161.69,119.56a1.5,1.5,0,0,1,1.5.64A1.49,1.49,0,0,1,161.69,119.56Z"/><path class="cls-101" d="M641.69,124a1.54,1.54,0,0,1-.67-1.45A1.46,1.46,0,0,1,641.69,124Z"/><path class="cls-74" d="M185.28,144.72a1.27,1.27,0,0,1-1.31-.91A1.57,1.57,0,0,1,185.28,144.72Z"/><path class="cls-143" d="M57.39,138a1.39,1.39,0,0,1-1.41-.83A1.59,1.59,0,0,1,57.39,138Z"/><path class="cls-128" d="M114.52,32.27l.5,1A.91.91,0,0,1,114.52,32.27Z"/><path class="cls-166" d="M42.55,64.11a.89.89,0,0,1,.72.84A.9.9,0,0,1,42.55,64.11Z"/><path class="cls-166" d="M48,64a1.08,1.08,0,0,1-.91-.62A.87.87,0,0,1,48,64Z"/><path class="cls-166" d="M43.22,64.89a1,1,0,0,1,.78,1A1.21,1.21,0,0,1,43.22,64.89Z"/><path class="cls-146" d="M58.18,17.45c-.25-.24-.49-.49-.74-.74C57.69,17,57.93,17.21,58.18,17.45Z"/><path class="cls-98" d="M57.48,70.69l-.81-.64A.79.79,0,0,1,57.48,70.69Z"/><path class="cls-98" d="M58.37,71.38a1.11,1.11,0,0,1-.92-.71A1,1,0,0,1,58.37,71.38Z"/><path class="cls-56" d="M120.32,185.38a1,1,0,0,1,.89-.65A.89.89,0,0,1,120.32,185.38Z"/><path class="cls-21" d="M196.59,71.42l-.83-.59A.79.79,0,0,1,196.59,71.42Z"/><path class="cls-81" d="M113,74.37a1,1,0,0,1-.74-.85A.94.94,0,0,1,113,74.37Z"/><path class="cls-81" d="M113.65,75.15l-.7-.82A.83.83,0,0,1,113.65,75.15Z"/><path class="cls-166" d="M42,60.32a.86.86,0,0,1-.8-.54A.67.67,0,0,1,42,60.32Z"/><path class="cls-134" d="M126.42,52.89a1,1,0,0,1-.91-.5A.88.88,0,0,1,126.42,52.89Z"/><path class="cls-166" d="M39.82,61.05l.64.69A.67.67,0,0,1,39.82,61.05Z"/><path class="cls-76" d="M118.07,198.78a1.14,1.14,0,0,1-1,.55A1,1,0,0,1,118.07,198.78Z"/><path class="cls-79" d="M98.17,52.94l-.81-.69A.92.92,0,0,1,98.17,52.94Z"/><path class="cls-166" d="M44.36,61.75a1.14,1.14,0,0,1-1-.63A1,1,0,0,1,44.36,61.75Z"/><path class="cls-166" d="M40.51,61.81l.66.74A.73.73,0,0,1,40.51,61.81Z"/><path class="cls-166" d="M45.66,62.54a.86.86,0,0,1-.8-.55A.68.68,0,0,1,45.66,62.54Z"/><path class="cls-166" d="M41.19,62.57a.94.94,0,0,1,.69.78A.82.82,0,0,1,41.19,62.57Z"/><path class="cls-174" d="M111.57,44a1,1,0,0,1-.84-.74A1.11,1.11,0,0,1,111.57,44Z"/><path class="cls-151" d="M121.62,39.75a1,1,0,0,1,.88.7A.92.92,0,0,1,121.62,39.75Z"/><path class="cls-151" d="M125.46,38.17a1.12,1.12,0,0,1-.61-1A1,1,0,0,1,125.46,38.17Z"/><path class="cls-22" d="M59.42,192.84l.95.53A.87.87,0,0,1,59.42,192.84Z"/><path class="cls-166" d="M41.87,63.33a1,1,0,0,1,.72.82A.86.86,0,0,1,41.87,63.33Z"/><path class="cls-22" d="M107,192.61l1-.51A.88.88,0,0,1,107,192.61Z"/><path class="cls-106" d="M75.83,36.71l-.62-.59Z"/><path class="cls-112" d="M72.22,33.73l-.74-.7C71.72,33.27,72,33.5,72.22,33.73Z"/><path class="cls-100" d="M678.14,111.3a.77.77,0,0,1-.93-.54A.76.76,0,0,1,678.14,111.3Z"/><path class="cls-172" d="M631.74,112a1.05,1.05,0,0,1-1-.73A1.1,1.1,0,0,1,631.74,112Z"/><path class="cls-148" d="M637.4,111.37l.7.67A.74.74,0,0,1,637.4,111.37Z"/><path class="cls-100" d="M679.53,112.11a.75.75,0,0,1-.85-.58A.73.73,0,0,1,679.53,112.11Z"/><path class="cls-172" d="M632.9,112.88a.79.79,0,0,1-.75-.61A.68.68,0,0,1,632.9,112.88Z"/><path class="cls-100" d="M654.51,112.05a.69.69,0,0,1,.6.79A.7.7,0,0,1,654.51,112.05Z"/><path class="cls-75" d="M80.23,144a1.06,1.06,0,0,1,.83.77A.94.94,0,0,1,80.23,144Z"/><path class="cls-100" d="M680.41,112.7a.92.92,0,0,1-.89-.6A.77.77,0,0,1,680.41,112.7Z"/><path class="cls-172" d="M629.25,112.85a1,1,0,0,1,.63.92A.9.9,0,0,1,629.25,112.85Z"/><path class="cls-152" d="M639.38,113a1,1,0,0,1,.86.78A1,1,0,0,1,639.38,113Z"/><path class="cls-181" d="M647,142.46l.61.23c-.12.12-.25.35-.36.34s-.34-.26-.26-.56Z"/><path class="cls-133" d="M683.94,140.24a1.1,1.1,0,0,1,.68.9A1,1,0,0,1,683.94,140.24Z"/><path class="cls-100" d="M655.12,112.85a.79.79,0,0,1,.67.79A.74.74,0,0,1,655.12,112.85Z"/><path class="cls-100" d="M681.73,113.6a.79.79,0,0,1-.81-.61A.75.75,0,0,1,681.73,113.6Z"/><path class="cls-100" d="M655.8,113.66a.77.77,0,0,1,.69.74A.74.74,0,0,1,655.8,113.66Z"/><path class="cls-100" d="M682.53,114.27a.85.85,0,0,1-.8-.66A.78.78,0,0,1,682.53,114.27Z"/><path class="cls-172" d="M630.14,114.36a.72.72,0,0,1,.51.8A.72.72,0,0,1,630.14,114.36Z"/><path class="cls-100" d="M656.52,114.43a.79.79,0,0,1,.71.69A.72.72,0,0,1,656.52,114.43Z"/><path class="cls-165" d="M634.44,137.26l-.82-.64A1,1,0,0,1,634.44,137.26Z"/><path class="cls-127" d="M638.2,135.77l.64.67A.65.65,0,0,1,638.2,135.77Z"/><path class="cls-3" d="M150.59,115.86l.76.57A.79.79,0,0,1,150.59,115.86Z"/><path class="cls-28" d="M177.18,126.23l.8.6A.78.78,0,0,1,177.18,126.23Z"/><path class="cls-43" d="M669.07,129.2l.8.55A.74.74,0,0,1,669.07,129.2Z"/><path class="cls-82" d="M82.56,76.64l.78.64A.77.77,0,0,1,82.56,76.64Z"/><path class="cls-99" d="M146.9,179.37a1.08,1.08,0,0,1-.91.75Z"/><path class="cls-93" d="M88.92,81.19a1.13,1.13,0,0,1,1,.66A1.1,1.1,0,0,1,88.92,81.19Z"/><path class="cls-81" d="M94.21,84.11l.93.5A.82.82,0,0,1,94.21,84.11Z"/><path class="cls-164" d="M152.87,173.56l-.72.72A.89.89,0,0,1,152.87,173.56Z"/><path class="cls-164" d="M153.61,172.83l-.72.71A.86.86,0,0,1,153.61,172.83Z"/><path class="cls-68" d="M75.34,87.64a.87.87,0,0,1-.72-.89A1,1,0,0,1,75.34,87.64Z"/><path class="cls-164" d="M154.34,172.08l-.71.72A.87.87,0,0,1,154.34,172.08Z"/><path class="cls-68" d="M76,88.44a1.06,1.06,0,0,1-.73-.87A.94.94,0,0,1,76,88.44Z"/><path class="cls-24" d="M80.33,94.39l-.63-.89A.83.83,0,0,1,80.33,94.39Z"/><path class="cls-147" d="M52.61,95.76a1.21,1.21,0,0,1-1.09-.54A1,1,0,0,1,52.61,95.76Z"/><path class="cls-68" d="M56.56,94.9a1,1,0,0,1-.88.88A1.3,1.3,0,0,1,56.56,94.9Z"/><path class="cls-153" d="M636.58,98.83l-.74-.72Z"/><path class="cls-58" d="M81.27,159.42a1.1,1.1,0,0,1-.89-.72A1.1,1.1,0,0,1,81.27,159.42Z"/><path class="cls-147" d="M48.7,101.06a1,1,0,0,1,.52.9A.79.79,0,0,1,48.7,101.06Z"/><path class="cls-158" d="M644.21,104.65a1.1,1.1,0,0,1-1-.66A1.2,1.2,0,0,1,644.21,104.65Z"/><path class="cls-154" d="M646.22,106.21l-.77-.65A.79.79,0,0,1,646.22,106.21Z"/><path class="cls-136" d="M656.55,154.45l-.81.55A.83.83,0,0,1,656.55,154.45Z"/><path class="cls-77" d="M75.76,154.32l-.6-.67A.7.7,0,0,1,75.76,154.32Z"/><path class="cls-100" d="M676.67,110.56a.76.76,0,0,1-.95-.51A.73.73,0,0,1,676.67,110.56Z"/><path class="cls-150" d="M661,151.34a1.08,1.08,0,0,1-.85.69A1.06,1.06,0,0,1,661,151.34Z"/><path class="cls-172" d="M630.78,111.33a1,1,0,0,1-.85-.64A.78.78,0,0,1,630.78,111.33Z"/><path class="cls-100" d="M653.63,110.63a.83.83,0,0,1,.6.91A.77.77,0,0,1,653.63,110.63Z"/><path class="cls-1" d="M381.43,154.8c-1.46-4.17-3-8.32-4.47-12.48-2.49-6.93-5-13.87-7.49-20.78-.36-1-.47-2.2-1.71-2.69a4.94,4.94,0,0,0-6.91,3.13q-5.73,15.93-11.44,31.88c-.29.81-.55,1.63-.8,2.45a1.2,1.2,0,0,0,.65,1.53,3.84,3.84,0,0,0,5-2.08c.81-2.18,1.57-4.39,2.29-6.61a1.89,1.89,0,0,1,2.1-1.56q6.27.1,12.55,0a2.09,2.09,0,0,1,2.37,1.7c.64,2.11,1.53,4.15,2.15,6.26.54,1.83,1.52,2.77,3.22,2.42C382.2,158,382.44,157.68,381.43,154.8Zm-22.84-11.64c2-6,4-11.79,6-17.61l.71-.12,6.2,17.73Z"/><path class="cls-182" d="M301,129.13c-.48-6.15-4.87-10-11.74-10.3-2.94-.11-5.89-.06-8.84,0s-3.36.28-3.39,3.38c-.05,5.53,0,11.06,0,16.59s0,11.06,0,16.59c0,2.41.24,2.55,2.48,2.6,2.48.05,2.81-.19,2.85-2.6.06-3.2,0-6.39,0-9.59,0-2.63.06-2.66,2.57-2.7a29.58,29.58,0,0,0,6.22-.51C297.92,141,301.55,136.12,301,129.13Zm-10.84,9c-.36.1-.73.15-1.09.22-6.29,1.34-6.69,1-6.69-5.24v-2.22c0-2,.05-4,0-5.92,0-1.28.51-1.77,1.75-1.72,1.72.08,3.47-.08,5.16.16,3.72.51,5.88,3,6.11,6.76A7.42,7.42,0,0,1,290.17,138.08Z"/><path class="cls-183" d="M525.86,202.61c-2-5.78-7.5-7.75-12.69-4.52-.49.3-.8,1-1.74.63,0-3,0-6.06,0-9.12,0-1.46-.62-1.87-2-1.92-1.92-.07-1.84,1.13-1.85,2.4q0,12.55-.1,25.1c0,.89,0,1.8,1.22,1.84,1,0,2.06.19,2.11-1.32a4.09,4.09,0,0,1,.31-1c5.74,5.3,13.39,2.15,14.89-4.11A14.15,14.15,0,0,0,525.86,202.61ZM522,210.77a5.25,5.25,0,0,1-6.16,3.51c-2.53-.4-4.16-2.31-4.39-5.16-.05-.61,0-1.23,0-2.15-.24-2.57.25-5.15,3-6.71a5.21,5.21,0,0,1,7.23,2.29A9.41,9.41,0,0,1,522,210.77Z"/><path class="cls-184" d="M690.09,196.59c-5.76.07-9.83,4.5-9.79,10.66s4,10.13,9.77,10.07c6-.06,9.74-4.11,9.69-10.54C699.71,200.61,695.82,196.51,690.09,196.59Zm4.16,15.82a5.23,5.23,0,0,1-8.48-.14,9.78,9.78,0,0,1-.08-10.41,5.19,5.19,0,0,1,8.88.15,8,8,0,0,1,1.28,4.91A7.82,7.82,0,0,1,694.25,212.41Z"/><path class="cls-53" d="M584.46,215.59c-.1-4.18,0-8.38-.31-12.55-.27-4-2.76-6.19-6.72-6.45a11.3,11.3,0,0,0-4.72.61c-1.05.39-2.75.33-2.38,2.05.51,2.35,2.09.79,3.17.54,2.1-.5,4.14-.78,5.9.82a2.92,2.92,0,0,1,1,2.66c-.2,1.31-1.36.75-2.08.91-2.27.51-4.63.6-6.66,2a6.43,6.43,0,0,0-2.88,7c.74,2.72,3,4.21,6.15,4.23a9,9,0,0,0,5.78-2.26c.17.4.32.7.43,1,.47,1.36,1.59.89,2.49.83S584.47,216.24,584.46,215.59Zm-7.82-1.14c-1.72.29-3.15,0-3.93-1.78a3.58,3.58,0,0,1,1.38-4.47,8.17,8.17,0,0,1,3.75-1.29c2.53-.38,2.7-.2,2.7,2.33C580.54,212.39,579.34,214,576.64,214.45Z"/></svg>